<svg width="178" height="34" viewBox="0 0 178 34" fill="none" xmlns="http://www.w3.org/2000/svg">
<g clip-path="url(#clip0_154_2089)">
<path d="M75.9289 5.35025C72.9271 5.35025 71.5419 7.55377 71.5419 9.68103C71.5419 11.8083 72.8512 13.9355 75.9289 13.9355C77.0466 13.9355 78.2401 13.482 79.0864 12.6833L80.3917 13.9355C79.1622 15.1116 77.5815 15.6855 75.9249 15.6855C71.6137 15.6855 69.6857 12.4465 69.6857 9.36796C69.6857 6.28946 71.6856 3.56817 75.9249 3.56817C77.5016 3.56817 79.0425 4.13812 80.2759 5.35427L79.0065 6.57042C78.1563 5.73156 77.0426 5.35427 75.9249 5.35427L75.9289 5.35025ZM81.4735 15.4166V3.71668H83.3975V13.6666H89.6367V15.4166H81.4775H81.4735ZM96.9137 15.6855C92.7902 15.6855 90.8262 12.7194 90.8262 9.64491C90.8262 6.07673 93.369 3.53205 96.9137 3.53205C100.993 3.53205 102.993 6.45803 102.993 9.64491C102.993 12.8318 101.025 15.6855 96.9137 15.6855ZM96.9457 5.23787C94.2153 5.23787 92.7144 7.13635 92.7144 9.68103C92.7503 11.732 93.9837 13.9717 96.9137 13.9717C99.8437 13.9717 101.105 11.9207 101.105 9.68103C101.105 7.44139 99.8357 5.27399 96.9457 5.23787ZM109.149 15.6454C106.494 15.5691 104.263 13.8994 104.263 10.5921V3.7528H106.155V10.5921C106.155 12.7194 107.42 13.8593 109.149 13.9355C111.041 14.0479 112.426 12.8318 112.426 10.5921V3.7528H114.31V10.5921C114.31 14.0479 111.999 15.7618 109.149 15.6454ZM120.589 15.4206H116.082V3.71668H120.589C124.633 3.71668 126.481 6.5664 126.513 9.45225C126.593 12.4144 124.705 15.4166 120.589 15.4166V15.4206ZM120.589 5.50679H117.97V13.6345H120.589C123.471 13.6345 124.709 11.5434 124.669 9.45626C124.637 7.48153 123.399 5.50679 120.589 5.50679ZM140.38 15.4607H138.684L137.107 11.3186L135.838 7.40527L134.528 11.3588L132.992 15.4607H131.339L127.02 3.76083H129.139L132.145 12.7635L135.223 3.76083H136.452L139.574 12.7635L142.536 3.76083H144.656L140.38 15.4607ZM154.93 15.4607L153.777 12.9923H147.346L146.228 15.4607H144.228L149.537 3.76083H151.617L156.93 15.4607H154.926H154.93ZM150.575 5.69945L148.08 11.2825H153.082L150.575 5.69945ZM162.168 10.6363V15.4206H160.279V10.6363L155.701 3.80097V3.72471H157.968L161.202 8.89033L164.587 3.72471H166.866V3.80097L162.168 10.6363ZM172.562 5.05324C170.977 5.05324 169.828 5.69945 169.828 6.83933C169.828 7.97922 171.137 8.28426 172.71 8.50903C175.137 8.85421 177.488 9.4964 177.488 12.1173C177.488 14.7383 175.061 15.7257 172.558 15.7257C170.287 15.7257 168.554 15.0433 167.477 13.0686L168.902 12.1173C169.744 13.5221 171.209 14.0519 172.594 14.0519C173.979 14.0519 175.604 13.5984 175.604 12.1173C175.604 10.8651 174.215 10.4075 172.562 10.1827C170.215 9.8777 167.984 9.27163 167.984 6.76307C167.984 4.25452 170.403 3.41967 172.562 3.41967C174.255 3.41967 175.987 3.83709 176.989 5.3944L175.492 6.34565C174.909 5.54693 173.796 5.05324 172.562 5.05324ZM43.5555 27.0643C35.979 27.0643 29.8397 21.0077 29.8397 13.5342C29.8397 6.06068 35.983 0 43.5555 0C51.1279 0 57.2752 6.06068 57.2752 13.5342C57.2752 21.0077 51.1319 27.0643 43.5555 27.0643ZM53.6267 33.9599C47.0323 33.9599 41.6913 28.6899 41.6913 22.1837C41.6913 15.6775 47.0363 10.4075 53.6267 10.4075C60.2172 10.4075 65.5622 15.6775 65.5622 22.1837C65.5622 28.6899 60.2172 33.9599 53.6267 33.9599ZM33.6598 33.9599C27.0694 33.9599 21.7243 28.6899 21.7243 22.1837C21.7243 15.6775 27.0694 10.4075 33.6598 10.4075C40.2503 10.4075 45.5993 15.6775 45.5993 22.1837C45.5993 28.6899 40.2542 33.9599 33.6598 33.9599ZM33.6598 34V24.624H53.5868V34H33.6598ZM14.1719 26.8075H2.57972C2.06079 26.8075 1.66959 26.4221 1.66959 25.9084V24.5799C1.66959 24.0661 2.0568 23.6808 2.57972 23.6808H14.128C14.6469 23.6808 15.0421 24.0661 15.0421 24.5799V25.9084C15.086 26.382 14.6509 26.8075 14.1719 26.8075ZM31.6679 26.8075H20.1197C19.6007 26.8075 19.2095 26.4221 19.2095 25.9084V24.5799C19.2095 24.0661 19.6007 23.6808 20.1197 23.6808H31.6679C32.1868 23.6808 32.578 24.0661 32.578 24.5799V25.9084C32.578 26.382 32.1868 26.8075 31.6639 26.8075H31.6679ZM44.0385 34H12.0043C11.1341 34 10.3996 33.2775 10.3996 32.4146C10.3996 31.5516 11.1341 30.8292 12.0043 30.8292H44.0345C44.9007 30.8292 45.6392 31.5597 45.6392 32.4146C45.6392 33.2695 44.9007 34 44.0345 34H44.0385ZM34.1428 19.6149H2.1047C1.23449 19.6149 0.5 18.8884 0.5 18.0335C0.5 17.1786 1.23449 16.4481 2.1047 16.4481H34.1388C35.009 16.4481 35.7435 17.1746 35.7435 18.0335C35.7435 18.8925 35.009 19.6149 34.1388 19.6149H34.1428ZM42.7411 12.4224H10.699C9.83281 12.4224 9.09433 11.6919 9.09433 10.837C9.09433 9.98206 9.83281 9.25156 10.699 9.25156H42.7331C43.5994 9.25156 44.3378 9.98206 44.3378 10.837C44.3378 11.6919 43.6393 12.4224 42.7331 12.4224H42.7411ZM45.8188 5.22583H13.7807C12.9105 5.22583 12.176 4.49935 12.176 3.64042C12.176 2.78149 12.9105 2.05501 13.7807 2.05501H45.8148C46.685 2.05501 47.4195 2.7855 47.4195 3.64042C47.4195 4.49534 46.685 5.22583 45.8148 5.22583H45.8188Z" fill="#2F39BF"/>
<path d="M116.417 20.9234C115.559 20.3254 114.497 20.0203 113.248 20.0203H110.549V28.6538H113.248C114.493 28.6538 115.559 28.3246 116.417 27.7065C116.888 27.3774 117.256 26.9038 117.499 26.3298C117.743 25.7559 117.886 25.0535 117.886 24.2949C117.886 23.5363 117.762 22.854 117.499 22.28C117.256 21.7061 116.884 21.2525 116.417 20.9234ZM112.126 21.4973H112.984C113.926 21.4973 114.701 21.682 115.296 22.0512C115.95 22.4406 116.278 23.2032 116.278 24.2909C116.278 25.3786 115.95 26.2014 115.296 26.6349C114.725 27.0041 113.966 27.2088 113.008 27.2088H112.15V21.4933H112.13L112.126 21.4973Z" fill="#2F39BF"/>
<path d="M120.261 22.5851H118.749V28.6698H120.261V22.5851Z" fill="#2F39BF"/>
<path d="M125.535 23.1028C125.083 22.6934 124.573 22.4446 124.002 22.4446C123.163 22.4446 122.469 22.7336 121.938 23.3075C121.387 23.8815 121.12 24.6039 121.12 25.487C121.12 26.37 121.387 27.0684 121.918 27.6664C122.449 28.2404 123.163 28.5293 124.002 28.5293C124.592 28.5293 125.083 28.3648 125.495 28.0357V28.1801C125.495 28.6939 125.351 29.0832 125.087 29.3521C124.824 29.6211 124.453 29.7615 124.006 29.7615C123.311 29.7615 122.86 29.4926 122.329 28.7541L121.287 29.7615L121.307 29.8017C121.531 30.1107 121.878 30.4198 122.329 30.7288C122.78 31.0178 123.351 31.1583 124.026 31.1583C124.924 31.1583 125.662 30.8693 126.193 30.3355C126.724 29.7816 127.012 29.0391 127.012 28.136V22.5851H125.519V23.0988H125.539L125.535 23.1028ZM125.127 26.679C124.86 26.9881 124.513 27.1326 124.086 27.1326C123.658 27.1326 123.307 26.9881 123.044 26.679C122.776 26.37 122.656 25.9806 122.656 25.487C122.656 24.9933 122.78 24.5839 123.044 24.2748C123.311 23.9658 123.658 23.8213 124.086 23.8213C124.513 23.8213 124.86 23.9658 125.127 24.2748C125.395 24.5839 125.535 24.9732 125.535 25.487C125.535 26.0007 125.391 26.37 125.127 26.679Z" fill="#2F39BF"/>
<path d="M129.578 22.5851H128.065V28.6698H129.578V22.5851Z" fill="#2F39BF"/>
<path d="M132.828 20.9435H131.335V22.5891H130.477V23.9858H131.355V26.5145C131.355 27.2971 131.518 27.8711 131.826 28.2002C132.133 28.5293 132.684 28.6939 133.462 28.6939C133.71 28.6939 133.953 28.6939 134.197 28.6738H134.257V27.2771L133.726 27.2971C133.359 27.2971 133.111 27.2369 133.011 27.1125C132.888 26.9881 132.828 26.7232 132.828 26.3098V23.9858H134.237V22.5891H132.828V20.9435Z" fill="#2F39BF"/>
<path d="M142.516 20.0364H141.003V28.6698H142.516V20.0364Z" fill="#2F39BF"/>
<path d="M157.433 26.4944C157.166 26.8035 156.882 27.0684 156.679 27.2129C156.475 27.3574 156.208 27.4176 155.88 27.4176C155.429 27.4176 155.062 27.253 154.779 26.9239C154.491 26.5948 154.327 26.1613 154.327 25.6475C154.327 25.1338 154.471 24.7003 154.755 24.3712C155.042 24.042 155.409 23.8775 155.856 23.8775C156.347 23.8775 156.858 24.1865 157.305 24.7003L158.307 23.733C157.653 22.87 156.814 22.4807 155.812 22.4807C154.974 22.4807 154.26 22.7898 153.665 23.3838C153.074 23.9818 152.787 24.7404 152.787 25.6435C152.787 26.5466 153.094 27.3092 153.665 27.9032C154.26 28.5013 154.974 28.8063 155.812 28.8063C156.914 28.8063 157.796 28.3327 158.407 27.4497L157.425 26.4824L157.433 26.4944Z" fill="#2F39BF"/>
<path d="M163.728 23.4279C163.504 23.1189 163.217 22.874 162.85 22.7095C162.483 22.5249 162.071 22.4406 161.604 22.4406C160.746 22.4406 160.071 22.7496 159.541 23.3878C159.03 24.0059 158.786 24.7645 158.786 25.6716C158.786 26.5787 159.074 27.3573 159.624 27.9313C160.175 28.5053 160.914 28.7942 161.812 28.7942C162.834 28.7942 163.672 28.3848 164.307 27.562L164.347 27.5219L163.345 26.5546C163.265 26.659 163.121 26.7994 162.997 26.9038C162.854 27.0483 162.71 27.1486 162.546 27.2329C162.323 27.3573 162.055 27.3975 161.768 27.3975C161.341 27.3975 160.994 27.2731 160.726 27.0282C160.483 26.8035 160.339 26.4944 160.299 26.1051H164.323L164.343 25.5512C164.343 25.1619 164.283 24.7685 164.179 24.4193C164.099 24.0701 163.936 23.741 163.728 23.4319V23.4279ZM160.395 24.8689C160.479 24.5799 160.598 24.335 160.782 24.1504C160.986 23.9457 161.253 23.8413 161.58 23.8413C161.948 23.8413 162.235 23.9457 162.419 24.1504C162.602 24.335 162.706 24.5839 162.726 24.8689H160.395Z" fill="#2F39BF"/>
<path d="M169.532 23.0386C169.061 22.6493 168.431 22.4406 167.632 22.4406C167.121 22.4406 166.65 22.5449 166.223 22.7697C165.836 22.9744 165.445 23.3035 165.201 23.737L165.221 23.7571L166.203 24.7043C166.61 24.0661 167.041 23.8413 167.632 23.8413C167.96 23.8413 168.203 23.9216 168.411 24.0862C168.618 24.2507 168.718 24.4755 168.718 24.7444V25.0334C168.351 24.909 167.964 24.8689 167.596 24.8689C166.842 24.8689 166.227 25.0535 165.756 25.4027C165.285 25.7519 165.062 26.2656 165.062 26.9239C165.062 27.4978 165.265 27.9514 165.656 28.3006C166.044 28.6297 166.534 28.7942 167.129 28.7942C167.724 28.7942 168.255 28.5695 168.742 28.1561V28.6498H170.235V24.7444C170.235 24.0059 170.011 23.4279 169.54 23.0386H169.532ZM166.834 26.3298C166.998 26.2054 167.241 26.1452 167.548 26.1452C167.916 26.1452 168.303 26.2255 168.694 26.37V26.968C168.367 27.2771 167.916 27.4416 167.385 27.4416C167.117 27.4416 166.914 27.3814 166.77 27.257C166.626 27.1326 166.566 26.9881 166.566 26.8035C166.586 26.6188 166.67 26.4543 166.834 26.3298Z" fill="#2F39BF"/>
<path d="M175.887 23.163C175.46 22.6894 174.865 22.4446 174.111 22.4446C173.52 22.4446 173.029 22.6091 172.662 22.9583V22.5891H171.169V28.6738H172.682V25.3023C172.682 24.8488 172.786 24.4795 173.009 24.2146C173.213 23.9457 173.52 23.8253 173.907 23.8253C174.255 23.8253 174.522 23.9296 174.706 24.1745C174.889 24.3992 174.993 24.7284 174.993 25.1418V28.6578H176.506V25.1418C176.526 24.2989 176.302 23.6407 175.891 23.167L175.887 23.163Z" fill="#2F39BF"/>
<path d="M139.346 23.0386C138.875 22.6493 138.244 22.4406 137.446 22.4406C136.935 22.4406 136.464 22.5449 136.037 22.7697C135.65 22.9744 135.262 23.3035 135.015 23.737L135.035 23.7571L136.017 24.7043C136.424 24.0661 136.855 23.8413 137.446 23.8413C137.773 23.8413 138.017 23.9216 138.22 24.0862C138.424 24.2507 138.528 24.4755 138.528 24.7444V25.0334C138.16 24.909 137.773 24.8689 137.402 24.8689C136.648 24.8689 136.033 25.0535 135.562 25.4027C135.091 25.7519 134.867 26.2656 134.867 26.9239C134.867 27.4978 135.071 27.9514 135.458 28.3006C135.845 28.6297 136.336 28.7942 136.931 28.7942C137.526 28.7942 138.057 28.5695 138.548 28.1561V28.6498H140.041V24.7444C140.041 24.0059 139.817 23.4279 139.346 23.0386ZM136.648 26.3298C136.811 26.2054 137.055 26.1452 137.362 26.1452C137.729 26.1452 138.117 26.2255 138.508 26.37V26.968C138.18 27.2771 137.733 27.4416 137.198 27.4416C136.931 27.4416 136.727 27.3814 136.584 27.257C136.44 27.1326 136.38 26.9881 136.38 26.8035C136.4 26.6188 136.484 26.4543 136.648 26.3298Z" fill="#2F39BF"/>
<path d="M147.769 28.7942C145.338 28.7942 143.354 26.7994 143.354 24.3551C143.354 21.9108 145.338 19.916 147.769 19.916C150.2 19.916 152.184 21.9108 152.184 24.3551C152.184 26.7994 150.224 28.7942 147.769 28.7942ZM147.769 21.4532C146.196 21.4532 144.907 22.7496 144.907 24.331C144.907 25.9124 146.196 27.2088 147.769 27.2088C149.342 27.2088 150.631 25.9124 150.631 24.331C150.631 22.7496 149.366 21.4532 147.769 21.4532Z" fill="#2F39BF"/>
<path d="M101.388 28.6257C100.913 28.6257 100.534 28.4731 100.251 28.1721V28.5333H99.3325V22.7576H100.267V24.7926C100.574 24.5277 100.945 24.3952 101.388 24.3952C101.963 24.3952 102.43 24.5959 102.797 24.9973C103.165 25.3987 103.348 25.9044 103.348 26.5145C103.348 27.1245 103.165 27.6303 102.797 28.0316C102.426 28.429 101.955 28.6257 101.388 28.6257ZM100.534 27.4376C100.726 27.6784 100.989 27.7988 101.32 27.7988C101.652 27.7988 101.915 27.6784 102.107 27.4376C102.298 27.1968 102.394 26.8877 102.394 26.5145C102.394 26.1412 102.298 25.8321 102.107 25.5913C101.915 25.3505 101.652 25.2301 101.32 25.2301C100.989 25.2301 100.726 25.3505 100.534 25.5913C100.342 25.8321 100.247 26.1412 100.247 26.5145C100.247 26.8877 100.342 27.1968 100.534 27.4376ZM107.955 24.8969L105.707 30.1308H104.725L105.348 28.5815L103.759 24.4956H104.825L105.875 27.4135L106.941 24.4956L107.959 24.8969H107.955Z" fill="#2F39BF"/>
<path d="M119.527 19.936C119.26 19.936 119.036 20.0404 118.872 20.2049C118.689 20.3896 118.605 20.5943 118.605 20.8632C118.605 21.1321 118.709 21.3569 118.872 21.5415C119.056 21.7261 119.28 21.8104 119.547 21.8104C119.814 21.8104 120.038 21.7061 120.222 21.5415C120.405 21.3569 120.489 21.1321 120.489 20.8632C120.489 20.5943 120.385 20.3695 120.222 20.2049C120.018 20.0203 119.795 19.936 119.527 19.936Z" fill="#2F39BF"/>
<path d="M128.844 19.936C128.577 19.936 128.353 20.0404 128.189 20.2049C128.006 20.3896 127.922 20.5943 127.922 20.8632C127.922 21.1321 128.026 21.3569 128.189 21.5415C128.373 21.7261 128.596 21.8104 128.864 21.8104C129.131 21.8104 129.355 21.7061 129.539 21.5415C129.722 21.3569 129.806 21.1321 129.806 20.8632C129.806 20.5943 129.702 20.3695 129.539 20.2049C129.315 20.0203 129.087 19.936 128.844 19.936Z" fill="#2F39BF"/>
</g>
<defs>
<clipPath id="clip0_154_2089">
<rect width="177" height="34" fill="white" transform="translate(0.5)"/>
</clipPath>
</defs>
</svg>
