<svg width="299" height="280" viewBox="0 0 299 280" fill="none" xmlns="http://www.w3.org/2000/svg">
<g style="mix-blend-mode:multiply">
<ellipse cx="147.785" cy="271.589" rx="147.785" ry="8.41055" fill="#0E1550" fill-opacity="0.3"/>
</g>
<path d="M298.543 117.542L296.811 111.222L289.67 111.545C289.009 110.152 288.241 108.837 287.371 107.602L291.157 101.541L286.502 96.937L280.475 100.794C279.217 99.9319 277.895 99.1778 276.516 98.5386L276.76 91.3855L270.424 89.7265L267.134 96.0681C265.632 95.9532 264.109 95.9603 262.572 96.104L259.21 89.7912L252.895 91.522L253.218 98.6679C251.824 99.3286 250.51 100.097 249.274 100.966L243.218 97.1812L238.613 101.835L242.463 107.861C241.601 109.117 240.847 110.439 240.208 111.818L233.059 111.574L231.4 117.908L237.743 121.197C237.628 122.698 237.636 124.228 237.779 125.758L231.464 129.119L233.196 135.439L240.337 135.116C240.998 136.509 241.767 137.823 242.636 139.058L238.85 145.12L243.505 149.723L249.533 145.867C250.79 146.729 252.112 147.483 253.491 148.122L253.247 155.275L259.583 156.934L262.873 150.592C264.375 150.707 265.898 150.7 267.435 150.557L270.798 156.869L277.112 155.139L276.789 147.993C278.183 147.332 279.498 146.563 280.733 145.694L286.789 149.479L291.394 144.825L287.544 138.8C288.406 137.543 289.16 136.222 289.8 134.843L296.948 135.087L298.607 128.753L292.264 125.463C292.379 123.962 292.372 122.433 292.228 120.903L298.543 117.542ZM269.461 139.597C260.481 142.053 251.214 136.767 248.75 127.783C246.293 118.799 251.58 109.527 260.553 107.063C269.533 104.607 278.801 109.893 281.265 118.878C283.722 127.862 278.434 137.134 269.461 139.597Z" fill="#99B9FB"/>
<path d="M30.0817 85.3945L251.195 93.9315V93.928C256.453 93.928 176.81 258.823 176.81 258.823L109.976 253.415L30.0817 258.827C24.824 258.827 20.5447 254.548 20.5447 249.29V94.9315C20.5447 89.6738 24.824 85.3945 30.0817 85.3945Z" fill="#729CFF"/>
<path d="M259.757 85.9362H34.6186C29.6484 85.9362 25.6192 89.9654 25.6192 94.9356V249.29C25.6192 254.261 29.6484 258.29 34.6186 258.29H259.757C264.727 258.29 268.756 254.261 268.756 249.29V94.9356C268.756 89.9654 264.727 85.9362 259.757 85.9362Z" fill="white" stroke="#729CFF" stroke-width="1.90857" stroke-miterlimit="10"/>
<path d="M40.8731 44.2843H250.486C255.973 44.2843 260.428 48.7392 260.428 54.2263V246.216C260.428 248.145 258.865 249.707 256.937 249.707H37.3465C35.5402 249.707 34.0743 248.241 34.0743 246.435V51.0795C34.0743 47.3271 37.1207 44.2807 40.8731 44.2807V44.2843Z" fill="#E2ECFF" stroke="#729CFF" stroke-width="1.90857" stroke-miterlimit="10"/>
<path d="M260.345 62.8917V51.8674C260.345 47.6777 255.862 44.255 250.231 44.255H43.2137C38.1675 44.255 34.1964 47.3265 34.1964 51.0789V62.8917H260.345Z" fill="white" stroke="#729CFF" stroke-width="1.90857" stroke-miterlimit="10"/>
<path d="M235.978 97.0866H57.0729V198.689H235.978V97.0866Z" fill="#CADDFF"/>
<path d="M155.173 131.267H62.226V136.395H155.173V131.267Z" fill="white"/>
<path d="M202.137 139.962H93.4923V145.298H202.137V139.962Z" fill="white"/>
<path d="M226.332 148.763H117.687V154.1H226.332V148.763Z" fill="white"/>
<path d="M226.333 157.563H157.076V162.899H226.333V157.563Z" fill="white"/>
<path d="M226.332 104.759H117.687V110.096H226.332V104.759Z" fill="white"/>
<path d="M200.131 122.36H157.076V127.697H200.131V122.36Z" fill="white"/>
<path d="M226.333 113.563H157.076V118.899H226.333V113.563Z" fill="white"/>
<path d="M155.173 166.469H62.226V171.598H155.173V166.469Z" fill="white"/>
<path d="M202.137 175.162H93.4923V180.499H202.137V175.162Z" fill="white"/>
<path d="M222.838 183.966H117.687V189.302H222.838V183.966Z" fill="white"/>
<path d="M153.542 80.816H57.8498V88.7007H153.542V80.816Z" fill="#CADDFF"/>
<path d="M235.618 207.685H57.4909V215.569H235.618V207.685Z" fill="#CADDFF"/>
<path d="M169.674 220.946H57.8498V228.831H169.674V220.946Z" fill="#CADDFF"/>
<path d="M66.5073 30.1964H15.5582C11.2055 30.1964 7.67688 33.7229 7.67688 38.0731V87.8151C7.67688 92.1653 11.2055 95.6919 15.5582 95.6919H66.5073C70.86 95.6919 74.3886 92.1653 74.3886 87.8151V38.0731C74.3886 33.7229 70.86 30.1964 66.5073 30.1964Z" fill="#2242D9"/>
<g clip-path="url(#clip0_326_172)">
<path d="M25.1485 62.6045C25.1485 69.0544 28.8959 74.6299 34.3296 77.2718L26.5588 55.9717C25.6537 57.9997 25.1485 60.2417 25.1485 62.6045Z" fill="#F8F9FB"/>
<path d="M52.4348 61.7816C52.4348 59.7691 51.7126 58.3737 51.0927 57.2884C50.2682 55.9457 49.4933 54.8108 49.4933 53.4681C49.4933 51.9704 50.6278 50.5749 52.2272 50.5749C52.2985 50.5749 52.3666 50.5842 52.4379 50.5873C49.5398 47.9299 45.6776 46.3081 41.4373 46.3081C35.7464 46.3081 30.7405 49.2291 27.8268 53.6541C28.2081 53.6665 28.5707 53.6727 28.8745 53.6727C30.5793 53.6727 33.2171 53.465 33.2171 53.465C34.0943 53.4123 34.1997 54.7022 33.3225 54.8077C33.3225 54.8077 32.4391 54.91 31.4596 54.9627L37.3923 72.6131L40.9569 61.9181L38.4183 54.9627C37.5411 54.91 36.7104 54.8077 36.7104 54.8077C35.8332 54.755 35.9355 53.4123 36.8127 53.465C36.8127 53.465 39.5031 53.6727 41.1026 53.6727C42.8074 53.6727 45.4452 53.465 45.4452 53.465C46.3224 53.4123 46.4277 54.7022 45.5505 54.8077C45.5505 54.8077 44.6671 54.91 43.6877 54.9627L49.5739 72.4797L51.1981 67.047C51.9017 64.7926 52.4379 63.1739 52.4379 61.7785L52.4348 61.7816Z" fill="#F8F9FB"/>
<path d="M41.7222 64.03L36.834 78.2383C38.294 78.6663 39.8376 78.9019 41.437 78.9019C43.334 78.9019 45.1535 78.5732 46.8459 77.9779C46.8025 77.9096 46.7622 77.8352 46.7312 77.7546L41.7222 64.03Z" fill="#F8F9FB"/>
<path d="M55.7326 54.7866C55.8039 55.3045 55.8411 55.8626 55.8411 56.4611C55.8411 58.1139 55.5311 59.9744 54.6012 62.297L49.6263 76.6883C54.4679 73.8634 57.7256 68.6136 57.7256 62.6009C57.7256 59.7667 57.0034 57.103 55.7295 54.7835L55.7326 54.7866Z" fill="#F8F9FB"/>
<path d="M41.4372 43.6075C30.9667 43.6075 22.4489 52.1288 22.4489 62.6037C22.4489 73.0785 30.9667 81.5998 41.4372 81.5998C51.9078 81.5998 60.4256 73.0785 60.4256 62.6037C60.4256 52.1288 51.9047 43.6075 41.4372 43.6075ZM41.4372 80.7285C31.4471 80.7285 23.3199 72.5979 23.3199 62.6037C23.3199 52.6094 31.4471 44.4789 41.4372 44.4789C51.4274 44.4789 59.5546 52.6094 59.5546 62.6037C59.5546 72.5979 51.4274 80.7316 41.4372 80.7316V80.7285Z" fill="#F8F9FB"/>
</g>
<path d="M204.941 146.586L204.434 144.731L202.337 144.826C202.142 144.416 201.918 144.03 201.664 143.667L202.773 141.89L201.408 140.537L199.638 141.669C199.269 141.415 198.88 141.194 198.476 141.005L198.55 138.907L196.691 138.42L195.727 140.283C195.285 140.248 194.839 140.251 194.388 140.292L193.403 138.438L191.548 138.945L191.642 141.044C191.235 141.238 190.846 141.462 190.486 141.719L188.707 140.607L187.356 141.975L188.489 143.744C188.235 144.112 188.014 144.501 187.825 144.905L185.725 144.832L185.239 146.692L187.1 147.656C187.064 148.098 187.067 148.546 187.109 148.994L185.256 149.981L185.764 151.836L187.861 151.741C188.055 152.151 188.28 152.537 188.533 152.9L187.424 154.677L188.79 156.03L190.56 154.898C190.928 155.152 191.318 155.373 191.722 155.562L191.648 157.66L193.506 158.147L194.471 156.284C194.913 156.319 195.358 156.316 195.81 156.275L196.795 158.129L198.65 157.622L198.556 155.523C198.963 155.329 199.352 155.105 199.712 154.848L201.49 155.959L202.841 154.592L201.709 152.823C201.962 152.455 202.183 152.065 202.372 151.662L204.472 151.735L204.959 149.875L203.098 148.911C203.133 148.469 203.13 148.021 203.089 147.573L204.941 146.586ZM196.402 153.059C193.766 153.781 191.046 152.228 190.324 149.592C189.601 146.957 191.152 144.233 193.789 143.511C196.426 142.789 199.145 144.342 199.868 146.978C200.591 149.613 199.039 152.337 196.402 153.059Z" fill="#5479F7"/>
<path d="M172.922 83.0817C179.926 83.0817 185.604 77.4067 185.604 70.4063C185.604 63.4058 179.926 57.7309 172.922 57.7309C165.917 57.7309 160.239 63.4058 160.239 70.4063C160.239 77.4067 165.917 83.0817 172.922 83.0817Z" fill="#959CEE"/>
<path d="M169.087 131.867C135.667 131.867 108.475 104.692 108.475 71.2905C108.475 37.8892 135.667 10.7137 169.087 10.7137C202.508 10.7137 229.699 37.8892 229.699 71.2905C229.699 104.692 202.508 131.867 169.087 131.867ZM169.087 11.598C136.153 11.598 109.36 38.3756 109.36 71.2905C109.36 104.205 136.153 130.983 169.087 130.983C202.021 130.983 228.814 104.205 228.814 71.2905C228.814 38.3756 202.021 11.598 169.087 11.598Z" fill="#959CEE"/>
<path d="M169.975 116.238C145.663 116.238 125.88 96.4673 125.88 72.1687C125.88 47.8702 145.663 28.0995 169.975 28.0995C194.288 28.0995 214.07 47.8702 214.07 72.1687C214.07 96.4673 194.288 116.238 169.975 116.238ZM169.975 28.9838C146.149 28.9838 126.765 48.3566 126.765 72.1687C126.765 95.9809 146.149 115.354 169.975 115.354C193.801 115.354 213.185 95.9809 213.185 72.1687C213.185 48.3566 193.801 28.9838 169.975 28.9838Z" fill="#959CEE"/>
<path d="M172.482 93.2455C159.958 93.2455 149.771 83.0639 149.771 70.5477C149.771 58.0314 159.958 47.8498 172.482 47.8498C185.005 47.8498 195.193 58.0314 195.193 70.5477C195.193 83.0639 185.005 93.2455 172.482 93.2455ZM172.482 48.7371C160.448 48.7371 150.655 58.5237 150.655 70.5506C150.655 82.5775 160.445 92.3642 172.482 92.3642C184.519 92.3642 194.308 82.5775 194.308 70.5506C194.308 58.5237 184.516 48.7371 172.482 48.7371Z" fill="#959CEE"/>
<path d="M235.426 60.266C241.464 56.7826 243.532 49.0446 240.044 42.9818C236.56 36.9191 228.838 34.8301 222.806 38.3135C216.768 41.7969 214.7 49.5349 218.188 55.5976C221.672 61.6604 229.394 63.7494 235.426 60.266Z" fill="white"/>
<path d="M232.903 61.7222C230.656 62.4118 228.199 62.4935 225.763 61.8346C218.857 59.9652 214.741 52.8094 216.595 45.8886C217.488 42.5329 219.639 39.734 222.632 38.0025C225.63 36.271 229.124 35.8164 232.469 36.7205C235.815 37.6245 238.608 39.785 240.345 42.7934C242.076 45.8069 242.536 49.3107 241.642 52.6664C240.442 57.1509 237.035 60.4555 232.903 61.7171V61.7222ZM225.533 37.4917C224.649 37.7624 223.796 38.1302 222.974 38.6052C220.134 40.2447 218.106 42.8956 217.259 46.0674C215.507 52.6205 219.404 59.3881 225.936 61.1604C232.474 62.9276 239.216 59.0356 240.963 52.4877C241.811 49.3107 241.377 45.9959 239.737 43.1458C238.098 40.2958 235.452 38.2527 232.285 37.3998C230.033 36.7869 227.704 36.8328 225.528 37.4968L225.533 37.4917Z" fill="black"/>
<path d="M236.392 45.8889L224.573 42.6864C223.95 42.5179 223.306 42.8908 223.138 43.5139L220.952 51.6963C220.783 52.3245 221.156 52.9681 221.779 53.1366L233.598 56.3391C234.221 56.5076 234.865 56.1399 235.033 55.5117L237.219 47.3293C237.388 46.701 237.015 46.0575 236.392 45.8889Z" fill="#FFAD3C"/>
<path d="M234.354 56.6614C234.083 56.7431 233.797 56.7482 233.516 56.6767L221.697 53.4794C221.304 53.3721 220.977 53.1218 220.773 52.7694C220.568 52.417 220.512 52.0033 220.62 51.6151L222.806 43.4327C222.913 43.0394 223.163 42.7125 223.516 42.5082C223.868 42.3039 224.277 42.2528 224.67 42.355L236.489 45.5523C237.301 45.772 237.781 46.6096 237.567 47.4217L235.381 55.6041C235.273 55.9974 235.023 56.3243 234.671 56.5286C234.568 56.5848 234.461 56.6359 234.354 56.6665V56.6614ZM224.037 43.0241C223.975 43.0445 223.919 43.0649 223.863 43.1007C223.674 43.2079 223.536 43.3867 223.48 43.6012L221.294 51.7836C221.238 51.9981 221.263 52.2229 221.375 52.4119C221.483 52.606 221.661 52.7439 221.876 52.8L233.695 55.9974C233.91 56.0536 234.129 56.0281 234.323 55.9157C234.517 55.8084 234.65 55.6297 234.706 55.4151L236.892 47.2327C237.01 46.7884 236.749 46.3338 236.31 46.2163L224.491 43.019C224.338 42.9781 224.185 42.9832 224.037 43.0292V43.0241Z" fill="black"/>
<path d="M229.124 50.323C228.996 50.3639 228.858 50.323 228.766 50.2208L225.038 46.0224C224.91 45.8794 224.92 45.6598 225.069 45.5321C225.212 45.4044 225.431 45.4146 225.559 45.5627L229.287 49.7612C229.415 49.9042 229.405 50.1238 229.257 50.2515C229.216 50.2872 229.175 50.3128 229.129 50.323H229.124Z" fill="black"/>
<path d="M229.155 50.3276C228.976 50.3837 228.782 50.2816 228.72 50.1028C228.659 49.919 228.761 49.7249 228.94 49.6636L234.257 47.9168C234.431 47.8657 234.635 47.9576 234.696 48.1415C234.758 48.3254 234.655 48.5195 234.477 48.5808L229.16 50.3276H229.155Z" fill="black"/>
<path d="M207.572 33.4828C214.709 33.4828 220.494 27.6679 220.494 20.4949C220.494 13.3219 214.709 7.507 207.572 7.507C200.436 7.507 194.65 13.3219 194.65 20.4949C194.65 27.6679 200.436 33.4828 207.572 33.4828Z" fill="white"/>
<path d="M207.555 33.9242C204.319 33.9242 201.228 32.7599 198.771 30.5991C193.229 25.7206 192.666 17.2192 197.518 11.6479C199.871 8.94771 203.128 7.32644 206.694 7.09062C210.256 6.85185 213.693 8.02506 216.38 10.3862C221.925 15.2648 222.485 23.7662 217.633 29.3375C215.279 32.0406 212.023 33.6589 208.457 33.8947C208.156 33.9154 207.856 33.9242 207.558 33.9242H207.555ZM207.593 7.94547C207.313 7.94547 207.033 7.95431 206.752 7.972C203.425 8.19308 200.382 9.70529 198.184 12.2256C193.651 17.4314 194.176 25.3757 199.355 29.9329C201.862 32.1379 205.074 33.2315 208.395 33.0104C211.722 32.7893 214.766 31.2771 216.964 28.7568C221.497 23.551 220.972 15.6067 215.793 11.0495C213.498 9.03025 210.613 7.94252 207.593 7.94252V7.94547Z" fill="black"/>
<g clip-path="url(#clip1_326_172)">
<path d="M202.811 24.9982V21.6064L202.585 21.722C202.364 21.8356 202.126 21.893 201.88 21.893C201.024 21.893 200.327 21.1966 200.327 20.3405C200.327 19.4844 201.024 18.7879 201.88 18.7879C202.126 18.7879 202.364 18.8454 202.585 18.959L202.811 19.0745V15.9933H206.203L206.088 15.7673C205.974 15.5462 205.917 15.3086 205.917 15.0618C205.917 14.2057 206.613 13.5092 207.469 13.5092C208.325 13.5092 209.022 14.2057 209.022 15.0618C209.022 15.3086 208.964 15.5462 208.851 15.7673L208.735 15.9933H211.816V18.5845C211.617 18.5134 211.409 18.4774 211.195 18.4774C210.168 18.4774 209.332 19.313 209.332 20.3405C209.332 21.368 210.168 22.2036 211.195 22.2036C211.409 22.2036 211.617 22.1675 211.816 22.0964V24.9982H202.811Z" fill="#B764D8"/>
</g>
<path d="M168.164 26.4226C175.301 26.4226 181.086 20.6077 181.086 13.4347C181.086 6.26168 175.301 0.4468 168.164 0.4468C161.028 0.4468 155.242 6.26168 155.242 13.4347C155.242 20.6077 161.028 26.4226 168.164 26.4226Z" fill="white"/>
<path d="M156.703 19.1153L163.478 13.0281C164.038 12.5241 164.891 12.5388 165.436 13.0547L170.565 17.9333L173.615 15.3539C174.084 14.956 174.757 14.9 175.285 15.2154L180.004 18.0305C177.054 26.6764 163.782 30.0191 156.703 19.1124V19.1153Z" fill="#2F39BF"/>
<path d="M168.144 26.864C164.908 26.864 161.817 25.6997 159.36 23.5389C153.815 18.6604 153.255 10.159 158.107 4.58768C160.46 1.88752 163.717 0.266241 167.283 0.0304192C170.843 -0.208351 174.282 0.964864 176.969 3.32603C182.511 8.2046 183.074 16.706 178.222 22.2773C175.869 24.9804 172.612 26.5987 169.046 26.8346C168.746 26.8552 168.445 26.864 168.147 26.864H168.144ZM168.182 0.885274C167.902 0.885274 167.622 0.894118 167.342 0.911804C164.015 1.13289 160.971 2.6451 158.773 5.16545C154.24 10.3712 154.765 18.3155 159.944 22.8727C162.451 25.0777 165.663 26.1713 168.985 25.9502C172.312 25.7291 175.355 24.2169 177.553 21.6966C182.086 16.4908 181.561 8.54655 176.382 3.98928C174.087 1.97006 171.203 0.882327 168.182 0.882327V0.885274Z" fill="black"/>
<path d="M171.94 12.2366C173.08 12.2366 174.004 11.3127 174.004 10.1731C174.004 9.03352 173.08 8.10969 171.94 8.10969C170.8 8.10969 169.875 9.03352 169.875 10.1731C169.875 11.3127 170.8 12.2366 171.94 12.2366Z" fill="#2F39BF"/>
<path d="M212.017 133.768C219.154 133.768 224.939 127.953 224.939 120.78C224.939 113.607 219.154 107.792 212.017 107.792C204.881 107.792 199.095 113.607 199.095 120.78C199.095 127.953 204.881 133.768 212.017 133.768Z" fill="white"/>
<path d="M212 134.213C208.764 134.213 205.673 133.049 203.216 130.888C197.671 126.009 197.111 117.508 201.963 111.937C204.316 109.236 207.573 107.618 211.139 107.379C214.699 107.144 218.138 108.314 220.825 110.675C226.37 115.554 226.93 124.055 222.078 129.626C219.724 132.326 216.468 133.945 212.902 134.183C212.601 134.204 212.301 134.213 212.003 134.213H212ZM212.035 108.234C211.755 108.234 211.475 108.243 211.195 108.264C207.868 108.485 204.824 109.997 202.629 112.517C198.096 117.723 198.621 125.667 203.8 130.225C206.307 132.43 209.519 133.523 212.843 133.302C216.17 133.081 219.214 131.569 221.409 129.048C225.942 123.843 225.417 115.898 220.238 111.341C217.943 109.322 215.058 108.234 212.038 108.234H212.035Z" fill="#2F39BF"/>
<path d="M218.825 118.218C218.825 121.408 213.74 129.072 212.522 130.861C212.398 131.044 212.127 131.044 212.003 130.861C211.13 129.579 208.275 125.287 206.726 121.782C206.11 120.391 205.7 119.126 205.7 118.218C205.7 114.595 208.638 111.659 212.263 111.659C215.888 111.659 218.825 114.595 218.825 118.218Z" fill="#2F39BF"/>
<path d="M213.572 120.914C215.065 120.191 215.688 118.396 214.965 116.905C214.242 115.413 212.446 114.79 210.954 115.513C209.462 116.235 208.838 118.03 209.561 119.522C210.284 121.013 212.08 121.636 213.572 120.914Z" fill="white"/>
<path d="M212.843 121.315C212.082 121.315 211.348 121.065 210.737 120.59C210.012 120.027 209.549 119.213 209.434 118.303C209.404 118.061 209.575 117.84 209.817 117.807C210.062 117.778 210.28 117.949 210.312 118.191C210.398 118.869 210.743 119.473 211.283 119.891C211.823 120.31 212.495 120.493 213.171 120.407C213.849 120.322 214.454 119.977 214.872 119.438C215.291 118.898 215.474 118.229 215.389 117.551C215.303 116.873 214.958 116.269 214.418 115.85C213.991 115.517 213.477 115.331 212.938 115.314C212.693 115.305 212.501 115.101 212.51 114.857C212.519 114.612 212.725 114.42 212.967 114.429C213.696 114.453 214.386 114.703 214.964 115.151C215.689 115.714 216.152 116.528 216.267 117.439C216.383 118.35 216.135 119.255 215.571 119.98C215.008 120.705 214.194 121.168 213.283 121.283C213.135 121.301 212.991 121.309 212.846 121.309L212.843 121.315Z" fill="#2F39BF"/>
<path d="M233.017 99.6741C240.154 99.6741 245.939 93.8592 245.939 86.6862C245.939 79.5132 240.154 73.6983 233.017 73.6983C225.881 73.6983 220.096 79.5132 220.096 86.6862C220.096 93.8592 225.881 99.6741 233.017 99.6741Z" fill="white"/>
<path d="M232.997 100.119C229.761 100.119 226.67 98.9545 224.213 96.7938C218.671 91.9152 218.108 83.4138 222.96 77.8425C225.314 75.1394 228.57 73.5211 232.136 73.2852C235.699 73.0494 239.135 74.2197 241.822 76.5809C247.367 81.4594 247.927 89.9608 243.075 95.5321C240.722 98.2323 237.465 99.8535 233.899 100.089C233.599 100.11 233.298 100.119 233 100.119H232.997ZM233.035 74.1401C232.755 74.1401 232.475 74.1489 232.195 74.1696C228.868 74.3907 225.824 75.9029 223.629 78.4232C219.096 83.629 219.621 91.5732 224.8 96.1305C227.307 98.3354 230.519 99.4291 233.84 99.208C237.168 98.9869 240.211 97.4747 242.409 94.9543C246.942 89.7486 246.417 81.8043 241.238 77.247C238.943 75.2278 236.059 74.1401 233.038 74.1401H233.035Z" fill="#2F39BF"/>
<path d="M228.632 80.8416H225.848V93.0366H228.632V80.8416Z" fill="#2F39BF"/>
<path d="M232.484 83.9811H229.699V92.8244H232.484V83.9811Z" fill="#2F39BF"/>
<path d="M236.338 86.6184H233.554V92.6083H236.338V86.6184Z" fill="#2F39BF"/>
<path d="M240.406 80.5589H237.622V92.6124H240.406V80.5589Z" fill="#2F39BF"/>
<path d="M90.0799 254.692L87.6994 263.436L94.3302 264.539L96.5404 256.81L90.0799 254.692Z" fill="white"/>
<path d="M94.3301 265.03C94.304 265.03 94.2778 265.03 94.2483 265.024L87.6176 263.921C87.48 263.898 87.3589 263.819 87.2836 263.702C87.2082 263.584 87.1853 263.443 87.2246 263.309L89.6051 254.565C89.6412 254.434 89.7263 254.326 89.8474 254.26C89.9653 254.195 90.1061 254.185 90.2338 254.228L96.6943 256.345C96.9464 256.427 97.0872 256.692 97.0152 256.947L94.8049 264.677C94.7427 264.89 94.5495 265.034 94.3334 265.034L94.3301 265.03ZM88.3183 263.041L93.9798 263.983L95.9379 257.13L90.4205 255.321L88.3183 263.041Z" fill="#0E134F"/>
<path d="M128.974 253.268L128.561 262.542L135.771 262.146L137.811 252.355L128.974 253.268Z" fill="white"/>
<path d="M128.562 263.033C128.434 263.033 128.309 262.981 128.214 262.892C128.116 262.794 128.064 262.66 128.07 262.523L128.483 253.248C128.493 253.006 128.683 252.807 128.922 252.78L137.759 251.867C137.917 251.851 138.07 251.91 138.175 252.028C138.28 252.146 138.323 252.303 138.293 252.456L136.253 262.248C136.207 262.467 136.021 262.627 135.798 262.637L128.588 263.03C128.588 263.03 128.571 263.03 128.562 263.03V263.033ZM129.446 253.713L129.076 262.022L135.366 261.678L137.193 252.915L129.446 253.713Z" fill="#0E134F"/>
<path d="M102.864 158.184C102.864 158.184 99.1079 167.567 98.381 177.185C97.6541 186.803 88.7149 250.123 87.8373 256.043C87.8373 256.043 93.6363 258.919 97.4576 258.301C97.4576 258.301 116.793 219.642 120.297 187.637C123.8 155.628 122.776 158.188 122.776 158.188H102.86L102.864 158.184Z" fill="#0E134F"/>
<path d="M109.488 161.787C109.488 161.787 108.283 179.125 114.304 191.38C120.326 203.636 128.46 243.868 127.084 256.212C127.084 256.212 134.707 258.225 138.319 256.808C138.319 256.808 149.226 195.307 135.274 161.541L109.484 161.784L109.488 161.787Z" fill="#0E134F"/>
<path d="M86.9633 261.962L85.9908 267.142C85.6536 268.939 86.6359 270.732 88.3452 271.387C90.706 272.29 94.3013 273.311 98.3813 273.226C102.078 273.147 105.176 272.99 107.317 272.856C108.45 272.784 108.889 271.347 107.992 270.653L95.8043 261.225L93.0407 263.434L86.9633 261.962Z" fill="white"/>
<path d="M97.8931 273.72C93.9146 273.72 90.4273 272.712 88.168 271.845C86.2426 271.105 85.1228 269.089 85.5059 267.051L86.4784 261.87C86.5046 261.739 86.5799 261.622 86.6945 261.55C86.8091 261.478 86.9466 261.455 87.0776 261.484L92.9192 262.901L95.4929 260.843C95.6697 260.702 95.9218 260.699 96.0987 260.836L108.286 270.264C108.859 270.709 109.092 271.442 108.879 272.133C108.666 272.823 108.063 273.298 107.34 273.344C105.355 273.468 102.192 273.632 98.3842 273.714C98.2172 273.717 98.0502 273.72 97.8865 273.72H97.8931ZM87.3527 262.561L86.4751 267.234C86.1804 268.808 87.0416 270.362 88.5216 270.929C90.7941 271.799 94.3468 272.823 98.3711 272.735C102.163 272.653 105.313 272.49 107.287 272.369C107.759 272.339 107.913 271.963 107.949 271.848C107.985 271.734 108.07 271.334 107.693 271.043L95.8105 261.854L93.3514 263.821C93.2335 263.916 93.0764 263.952 92.929 263.916L87.3559 262.564L87.3527 262.561Z" fill="#0E134F"/>
<path d="M97.1954 267.719C97.1201 267.719 97.0415 267.703 96.9695 267.664C96.7305 267.539 96.6355 267.241 96.7599 267.002L98.3513 263.946C98.4757 263.704 98.7737 263.612 99.0127 263.736C99.2518 263.861 99.3467 264.159 99.2223 264.398L97.6309 267.454C97.5425 267.621 97.3722 267.719 97.1954 267.719Z" fill="#0E134F"/>
<path d="M100.198 269.061C100.126 269.061 100.054 269.045 99.985 269.012C99.7394 268.894 99.6379 268.6 99.7558 268.357L101.141 265.487C101.259 265.242 101.553 265.141 101.796 265.258C102.041 265.376 102.143 265.671 102.025 265.913L100.64 268.783C100.555 268.96 100.381 269.061 100.198 269.061Z" fill="#0E134F"/>
<path d="M128.116 260.569C128.116 260.569 127.736 263.809 127.831 267.032C127.874 268.427 128.961 269.565 130.353 269.683C134.275 270.02 142.203 270.436 149.685 269.238C150.484 269.11 150.854 268.158 150.34 267.533C148.807 265.664 145.042 262.281 136.446 259.339L133.915 261.224C133.915 261.224 131.747 259.748 128.116 260.566V260.569Z" fill="white"/>
<path d="M138.601 270.528C135.241 270.528 132.311 270.345 130.313 270.172C128.67 270.031 127.393 268.686 127.343 267.046C127.245 263.823 127.625 260.544 127.628 260.511C127.651 260.305 127.805 260.135 128.008 260.089C131.05 259.402 133.129 260.246 133.882 260.639L136.155 258.947C136.286 258.849 136.453 258.822 136.607 258.875C145.399 261.882 149.223 265.394 150.72 267.22C151.073 267.648 151.165 268.218 150.965 268.741C150.765 269.268 150.317 269.635 149.763 269.723C145.965 270.332 142.055 270.528 138.601 270.528ZM128.568 260.976C128.476 261.895 128.247 264.477 128.326 267.017C128.359 268.159 129.252 269.095 130.399 269.193C134.403 269.537 142.226 269.936 149.61 268.755C149.813 268.722 149.976 268.588 150.048 268.395C150.084 268.303 150.143 268.067 149.96 267.845C148.542 266.117 144.917 262.799 136.532 259.889L134.21 261.62C134.043 261.745 133.814 261.751 133.64 261.634C133.621 261.62 131.721 260.38 128.568 260.976Z" fill="#0E134F"/>
<path d="M137.809 265.615C137.694 265.615 137.579 265.576 137.484 265.494C137.281 265.314 137.262 265.006 137.439 264.8L140.86 260.902C141.04 260.699 141.348 260.68 141.555 260.857C141.758 261.037 141.777 261.344 141.6 261.55L138.179 265.448C138.08 265.559 137.946 265.615 137.809 265.615Z" fill="#0E134F"/>
<path d="M141.122 266.198C141.014 266.198 140.903 266.162 140.811 266.087C140.602 265.917 140.569 265.606 140.739 265.396L143.257 262.307C143.427 262.098 143.738 262.065 143.948 262.235C144.158 262.405 144.19 262.716 144.02 262.925L141.502 266.015C141.404 266.133 141.263 266.195 141.122 266.195V266.198Z" fill="#0E134F"/>
<path d="M117.389 199.912C117.186 199.912 116.993 199.785 116.924 199.582C116.911 199.546 115.667 195.94 112.668 189.663C109.613 183.272 108.928 175.309 108.902 174.972C108.879 174.701 109.082 174.465 109.351 174.442C109.626 174.426 109.858 174.622 109.881 174.891C109.888 174.972 110.579 183.013 113.555 189.237C116.584 195.573 117.845 199.225 117.854 199.261C117.943 199.516 117.805 199.798 117.55 199.883C117.498 199.903 117.445 199.909 117.389 199.909V199.912Z" fill="#0E134F"/>
<path d="M112.743 109.917L114.504 100.24L122.396 102.269L121.305 109.007L112.743 109.917Z" fill="white"/>
<path d="M112.743 110.408C112.609 110.408 112.478 110.352 112.383 110.251C112.278 110.136 112.232 109.983 112.258 109.829L114.023 100.152C114.046 100.018 114.128 99.8999 114.243 99.8246C114.357 99.7526 114.498 99.7297 114.629 99.7624L122.517 101.791C122.763 101.854 122.92 102.096 122.881 102.344L121.79 109.083C121.754 109.302 121.578 109.469 121.358 109.492L112.792 110.405C112.776 110.405 112.756 110.405 112.74 110.405L112.743 110.408ZM114.898 100.846L113.346 109.357L120.883 108.556L121.839 102.629L114.894 100.842L114.898 100.846Z" fill="#0E134F"/>
<path d="M121.008 87.2067C118.188 87.5896 117.805 90.7705 114.436 91.1436C112.89 91.3137 112.118 90.741 110.749 91.3988C109.842 91.8341 108.525 92.8813 108.391 94.2656C108.221 96.0295 110.156 96.4123 112.134 99.8092C113.522 102.195 113.607 103.792 114.711 103.965C115.827 104.139 116.328 102.597 117.563 102.699C119.161 102.827 119.37 105.494 121.057 106.289C122.121 106.79 124.344 106.685 127.488 104.332C127.995 103.952 128.162 103.258 127.877 102.689C127.514 101.959 127.049 101.04 126.535 100.199C124.072 96.1898 122.334 95.5157 122.674 94.2852C123.198 92.4035 126.656 92.7504 126.925 91.2352C127.2 89.6611 123.905 86.8107 121.011 87.2034L121.008 87.2067Z" fill="#0E134F"/>
<path d="M116.43 95.3935L117.179 95.004C117.179 95.004 119.612 100.08 120.562 101.379C121.515 102.678 125.765 100.037 125.765 100.037L125.87 99.1012L126.377 98.7707C126.534 98.6693 126.639 98.4991 126.656 98.3125C126.675 98.126 126.606 97.9395 126.476 97.8086C125.451 96.7941 123.273 94.487 122.215 92.242C122.215 92.242 118.637 92.0293 116.43 95.3967V95.3935Z" fill="white"/>
<path d="M116.794 95.0625C116.869 94.9381 116.898 94.7974 116.892 94.7058C116.889 94.6141 116.892 94.5814 116.947 94.552C117.19 94.4211 117.491 94.5127 117.622 94.7549L117.629 94.768L117.635 94.7778C118.107 95.7366 118.595 96.6922 119.079 97.6445C119.567 98.5935 120.065 99.5458 120.595 100.449C120.726 100.665 120.877 100.904 120.995 101.064C121.037 101.123 121.142 101.179 121.335 101.198C121.722 101.231 122.229 101.107 122.701 100.95C123.657 100.619 124.613 100.132 125.504 99.608L125.274 99.9746C125.314 99.6637 125.34 99.3495 125.392 99.0386L125.402 98.9764C125.425 98.8488 125.504 98.7473 125.608 98.6884C125.769 98.6001 125.939 98.5281 126.109 98.4561C126.129 98.4496 126.155 98.4365 126.168 98.4332C126.178 98.4332 126.185 98.4299 126.194 98.4266C126.211 98.4201 126.231 98.4135 126.247 98.4005C126.276 98.3775 126.303 98.3416 126.312 98.3023C126.335 98.2237 126.306 98.1354 126.257 98.0732L125.893 97.7132C125.376 97.1896 124.868 96.6529 124.371 96.1031C123.388 94.997 122.458 93.8189 121.774 92.4445L122.187 92.7226C121.964 92.7226 121.679 92.739 121.424 92.775C121.162 92.811 120.9 92.8633 120.641 92.9321C120.124 93.0662 119.629 93.2691 119.164 93.5211C118.696 93.7731 118.267 94.0873 117.877 94.4472C117.684 94.6305 117.494 94.817 117.324 95.0232C117.236 95.1214 117.157 95.2294 117.072 95.3341L117.042 95.3734C117.042 95.3734 117.049 95.3668 117.049 95.357C117.056 95.3374 117.059 95.2981 117.042 95.2523C117.016 95.1508 116.895 95.0658 116.794 95.0625ZM116.063 95.7203C116.044 95.5992 116.004 95.3963 116.057 95.177C116.083 95.0723 116.126 94.9741 116.171 94.8956C116.194 94.8563 116.221 94.8138 116.24 94.7909L116.276 94.745C116.368 94.624 116.456 94.4996 116.558 94.3818C116.748 94.1429 116.964 93.9204 117.183 93.7044C117.632 93.2855 118.136 92.919 118.676 92.6244C119.217 92.3266 119.796 92.1106 120.392 91.9601C120.69 91.8848 120.991 91.8292 121.296 91.7899C121.607 91.7539 121.895 91.7278 122.246 91.7441C122.432 91.7507 122.586 91.8652 122.658 92.0223C122.943 92.6539 123.306 93.2626 123.696 93.8582C124.086 94.4538 124.511 95.033 124.963 95.5926C125.415 96.1555 125.89 96.6987 126.394 97.2158L126.584 97.4089L126.679 97.5038L126.728 97.5529C126.754 97.5791 126.777 97.6052 126.797 97.6314C126.974 97.854 127.039 98.155 126.984 98.4332C126.954 98.5706 126.902 98.7081 126.823 98.8259C126.784 98.8848 126.738 98.9437 126.686 98.9961C126.659 99.0222 126.633 99.0484 126.604 99.0713L126.548 99.1204C126.414 99.2448 126.276 99.3757 126.132 99.4869L126.348 99.1368C126.332 99.4509 126.286 99.7618 126.257 100.076C126.244 100.233 126.155 100.364 126.031 100.439H126.027C125.071 101.022 124.112 101.529 123.038 101.915C122.498 102.095 121.941 102.275 121.25 102.236C121.077 102.223 120.89 102.19 120.697 102.108C120.507 102.03 120.31 101.892 120.17 101.712C119.97 101.441 119.839 101.221 119.688 100.979C119.128 100.03 118.634 99.0746 118.143 98.1125C117.651 97.1504 117.187 96.1784 116.725 95.2032L117.412 95.4323C117.216 95.5337 116.97 95.6319 116.718 95.6712C116.463 95.7104 116.24 95.7006 116.067 95.7072L116.063 95.7203Z" fill="#0E134F"/>
<path d="M118.027 99.1053C118.027 99.1053 116.073 96.7131 115.169 97.8323C114.268 98.9515 116.488 101.53 118.027 99.1053Z" fill="white"/>
<path d="M85.0051 172.176C85.0051 172.176 85.6174 178.198 84.5663 180.374C83.5152 182.55 76.6913 186.71 76.6913 186.71C76.6913 186.71 74.6218 185.388 76.6913 183.699C78.7607 182.01 79.5957 180.603 79.5957 180.603C79.5957 180.603 79.1733 174.199 80.0999 172.87C81.0299 171.541 85.0051 172.176 85.0051 172.176Z" fill="white"/>
<path d="M76.688 187.198C76.5964 187.198 76.5047 187.172 76.4228 187.12C76.3802 187.09 75.3422 186.419 75.28 185.333C75.2375 184.623 75.6075 183.945 76.377 183.317C78.0011 181.992 78.8459 180.84 79.0915 180.473C79.0063 179.076 78.7575 173.928 79.694 172.59C80.768 171.052 84.6416 171.621 85.0804 171.69C85.2998 171.726 85.4701 171.903 85.493 172.125C85.5192 172.377 86.1053 178.31 85.0084 180.585C83.9278 182.826 77.6573 186.694 76.9467 187.126C76.8681 187.175 76.7797 187.198 76.6913 187.198H76.688ZM83.0306 172.511C81.9009 172.511 80.8302 172.681 80.5027 173.149C79.897 174.013 79.9265 178.16 80.0869 180.568C80.0934 180.666 80.0705 180.765 80.0181 180.853C79.9821 180.912 79.1144 182.352 77.0024 184.076C76.4916 184.495 76.2427 184.898 76.2656 185.274C76.2853 185.624 76.5374 185.925 76.7306 186.105C78.7804 184.832 83.3581 181.75 84.1275 180.156C84.8839 178.588 84.7169 174.485 84.5565 172.606C84.0817 172.547 83.5512 172.511 83.0339 172.511H83.0306Z" fill="#2F39BF"/>
<path d="M160.962 89.4348L160.483 86.2473C160.349 85.3474 160.516 84.4278 160.965 83.6359L165.863 74.9636C165.863 74.9636 167.343 75.6051 166.266 77.8664L164.75 80.7528C164.75 80.7528 167.268 81.9865 167.556 84.1202C168.028 87.6054 164.193 90.1155 164.193 90.1155L160.962 89.4381V89.4348Z" fill="white"/>
<path d="M164.194 90.6023C164.161 90.6023 164.125 90.599 164.092 90.5924L160.861 89.915C160.661 89.8725 160.507 89.7121 160.477 89.506L159.999 86.3185C159.849 85.3138 160.039 84.2765 160.54 83.3929L165.438 74.7206C165.563 74.5014 165.831 74.413 166.06 74.5112C166.129 74.5407 166.728 74.8188 167.013 75.5748C167.275 76.2686 167.174 77.1096 166.715 78.075L165.412 80.5556C166.204 81.0465 167.806 82.2442 168.051 84.0506C168.555 87.7977 164.639 90.4125 164.472 90.5237C164.39 90.5761 164.299 90.6055 164.204 90.6055L164.194 90.6023ZM161.398 89.0216L164.086 89.5845C164.777 89.074 167.439 86.9207 167.069 84.1783C166.82 82.3358 164.554 81.197 164.531 81.1839C164.413 81.125 164.322 81.0203 164.282 80.8959C164.243 80.7716 164.253 80.6341 164.315 80.5163L165.831 77.6299C166.159 76.9427 166.25 76.3438 166.09 75.9118C166.064 75.8399 166.031 75.7777 165.995 75.722L161.394 83.8707C161.001 84.5644 160.851 85.3793 160.972 86.168L161.401 89.0184L161.398 89.0216Z" fill="#2F39BF"/>
<path d="M78.7248 173.215H86.626C86.626 173.215 88.3353 145.17 103.398 136.092L102.248 113.537C102.248 113.537 70.673 131.091 78.7248 173.215Z" fill="#2F39BF"/>
<path d="M103.591 142.214L97.6872 170.253C97.6872 170.253 121.731 174.374 130.111 172.872C138.49 171.366 139.469 169.16 139.469 169.16L135.926 138.323L103.591 142.218V142.214Z" fill="white"/>
<path d="M125.218 173.693C114.992 173.693 98.4302 170.878 97.6018 170.734C97.4708 170.711 97.3529 170.636 97.2776 170.525C97.2023 170.414 97.1761 170.279 97.2023 170.149L103.106 142.109C103.149 141.903 103.319 141.75 103.528 141.723L135.864 137.829C135.994 137.813 136.125 137.849 136.227 137.93C136.328 138.012 136.397 138.13 136.41 138.261L139.953 169.098C139.963 169.186 139.95 169.272 139.914 169.353C139.803 169.605 138.588 171.844 130.192 173.349C128.859 173.588 127.15 173.689 125.215 173.689L125.218 173.693ZM98.273 169.851C101.77 170.427 122.491 173.739 130.025 172.384C136.895 171.15 138.63 169.448 138.961 169.033L135.497 138.863L104 142.656L98.273 169.851Z" fill="#2F39BF"/>
<path d="M114.377 109.727L102.249 113.536L97.0029 153.68C96.7541 155.595 97.8576 157.434 99.6716 158.102C105.48 160.242 119.207 164.018 138.159 161.093C140.14 160.788 141.614 159.103 141.663 157.1C141.83 150.369 141.954 135.266 140.052 126.59C140.052 126.59 166.791 126.567 165.245 90.4485L159.653 88.9235C159.653 88.9235 150.252 110.149 134.03 109.328C134.03 109.328 123.166 106.962 114.38 109.724L114.377 109.727Z" fill="#2F39BF"/>
<path d="M124.734 107.377C124.734 107.377 114.226 106.376 105.87 108.029C100.916 109.007 91.5214 112.659 98.6925 120.029C105.863 127.399 110.801 126.695 113.165 122.575C115.53 118.452 119.747 108.916 124.734 107.381V107.377Z" fill="white"/>
<path d="M108.322 126.129C105.451 126.129 102.019 124.156 98.3387 120.373C96.0172 117.987 95.1625 115.742 95.8011 113.7C97.1239 109.459 104.341 107.832 105.775 107.548C114.105 105.902 124.675 106.88 124.783 106.89C125.016 106.913 125.202 107.096 125.225 107.329C125.248 107.561 125.104 107.78 124.881 107.849C120.932 109.066 117.337 115.831 114.956 120.307C114.462 121.237 113.997 122.114 113.591 122.817C112.501 124.719 110.939 125.848 109.069 126.083C108.827 126.113 108.578 126.129 108.322 126.129ZM117.357 107.574C113.886 107.574 109.691 107.777 105.965 108.513C102.268 109.243 97.6347 111.115 96.7375 113.995C96.2169 115.667 96.9929 117.581 99.0427 119.689C102.825 123.577 106.25 125.452 108.945 125.111C110.516 124.912 111.793 123.979 112.736 122.333C113.133 121.643 113.594 120.772 114.085 119.849C116.211 115.85 119.275 110.084 122.871 107.741C121.551 107.662 119.603 107.577 117.353 107.577L117.357 107.574Z" fill="#2F39BF"/>
<path d="M102.867 116.662C101.069 116.662 99.458 116.089 98.0172 114.944C97.8044 114.777 97.7684 114.466 97.9386 114.253C98.1089 114.041 98.4167 114.005 98.6295 114.175C101.917 116.786 106.118 116.053 111.845 111.868C114.429 109.98 116.046 109.178 116.652 109.479C116.894 109.6 116.993 109.894 116.871 110.137C116.767 110.343 116.541 110.444 116.325 110.395C116.194 110.405 115.309 110.552 112.425 112.656C108.77 115.327 105.604 116.659 102.867 116.659V116.662Z" fill="#2F39BF"/>
<path d="M270.543 161.506H187.052C183.795 161.506 181.154 164.147 181.154 167.404V259.523C181.154 262.781 183.795 265.422 187.052 265.422H270.543C273.801 265.422 276.442 262.781 276.442 259.523V167.404C276.442 164.147 273.801 161.506 270.543 161.506Z" fill="white" stroke="#729CFF" stroke-width="1.90857" stroke-miterlimit="10"/>
<path d="M270.531 172.167H186.114C185.596 172.167 185.177 171.982 185.177 171.752C185.177 171.523 185.596 171.337 186.114 171.337H270.531C271.05 171.337 271.468 171.523 271.468 171.752C271.468 171.982 271.05 172.167 270.531 172.167Z" fill="#729CFF"/>
<path d="M187.358 167.557C188.194 167.557 188.872 166.879 188.872 166.043C188.872 165.207 188.194 164.529 187.358 164.529C186.521 164.529 185.843 165.207 185.843 166.043C185.843 166.879 186.521 167.557 187.358 167.557Z" fill="#99B9FF"/>
<path d="M193.409 167.557C194.245 167.557 194.923 166.879 194.923 166.043C194.923 165.207 194.245 164.529 193.409 164.529C192.572 164.529 191.894 165.207 191.894 166.043C191.894 166.879 192.572 167.557 193.409 167.557Z" fill="#99B9FF"/>
<path d="M199.453 167.557C200.29 167.557 200.968 166.879 200.968 166.043C200.968 165.207 200.29 164.529 199.453 164.529C198.617 164.529 197.939 165.207 197.939 166.043C197.939 166.879 198.617 167.557 199.453 167.557Z" fill="#99B9FF"/>
<path d="M214.344 210.793C217.093 205.982 222.209 202.585 228.152 201.974L228.566 178.462C211.493 178.519 196.426 188.14 189.56 202.355L214.344 210.793Z" fill="#DAE4FF" stroke="#729CFF" stroke-width="1.90857" stroke-miterlimit="10"/>
<path d="M247.28 221.217C245.88 228.942 238.842 235.019 230.22 235.286C227.65 235.369 225.193 234.923 222.966 234.052L209.508 254.891C215.763 257.716 222.833 259.097 230.227 258.671C251.721 257.436 268.628 241.255 270.505 221.771L247.286 221.217H247.28Z" fill="#DAE4FF" stroke="#729CFF" stroke-width="1.90857" stroke-miterlimit="10"/>
<path d="M205.296 252.693L218.881 231.79C214.822 228.781 212.206 224.104 212.206 218.791C212.206 217.505 212.359 216.258 212.652 215.055L187.772 206.713C186.436 210.633 185.717 214.801 185.717 219.115C185.717 233.413 193.562 245.719 205.302 252.687L205.296 252.693Z" fill="#DAE4FF" stroke="#729CFF" stroke-width="1.90857" stroke-miterlimit="10"/>
<path d="M235.864 201.084C243.716 202.255 249.755 208.338 250.467 215.86L288.43 216.96C288.43 216.96 288.43 216.929 288.43 216.909C288.43 189.058 266.242 165.222 236.538 162.155L235.858 201.084H235.864Z" fill="#09EBAF" stroke="#729CFF" stroke-width="1.90857" stroke-miterlimit="10"/>
<defs>
<clipPath id="clip0_326_172">
<rect width="37.9799" height="37.9923" fill="white" transform="translate(22.4489 43.608)"/>
</clipPath>
<clipPath id="clip1_326_172">
<rect width="12.4205" height="12.4205" fill="white" transform="translate(199.862 13.0426)"/>
</clipPath>
</defs>
</svg>
