<svg id="Layer_1" data-name="Layer 1" xmlns="http://www.w3.org/2000/svg" width="50.21" height="50.21" viewBox="0 0 50.21 50.21">
  <defs>
    <style>
      .cls-1 {
        fill: #3859a8;
      }

      .cls-2 {
        fill: #fff;
      }
    </style>
  </defs>
  <title>affiliate</title>
  <g>
    <circle class="cls-1" cx="25.1" cy="25.1" r="25.1"/>
    <path d="M25.54,31.61v-5.7A5.76,5.76,0,0,1,20.63,21H17.1v5.64a10.21,10.21,0,0,1,1,.46,3.53,3.53,0,1,1-2.81-.33.38.38,0,0,0,.34-.42h0V20.49c0-.72.22-.94.94-.94h4a5.66,5.66,0,0,1,11.23,0H36c.62,0,.86.24.86.86v5.88a.4.4,0,0,0,.32.47h0a3.5,3.5,0,1,1-2.06,0l.29-.09V21H31.85a5.76,5.76,0,0,1-4.9,4.89v5.75a3.57,3.57,0,0,1,2.42,1.86,3.47,3.47,0,0,1,.29,2.41,3.53,3.53,0,1,1-4.13-4.28Zm4.92-11.3a4.22,4.22,0,1,0-4.23,4.22h0A4.22,4.22,0,0,0,30.46,20.31ZM26.24,33a2.12,2.12,0,1,0,2.1,2.13A2.12,2.12,0,0,0,26.24,33ZM34,30.14A2.11,2.11,0,1,0,36.11,28h0A2.11,2.11,0,0,0,34,30.14Zm-15.52.06a1.89,1.89,0,1,0,0,.05Z" transform="translate(-0.89 -0.9)"/>
    <path class="cls-2" d="M30.46,20.31a4.22,4.22,0,1,1-4.22-4.23h0a4.2,4.2,0,0,1,4.21,4.2h0Zm-3-1.34.23-.52c-.19-.09-.37-.18-.55-.24L26.52,18v-.67H26V18c-.15,0-.29.07-.42.11a1,1,0,0,0-.76.92,1,1,0,0,0,.67,1c.26.11.54.19.81.27.5.16.71.39.67.67a.72.72,0,0,1-.91.35,11,11,0,0,1-1.2-.4l-.28.55,1.45.67v.67h.48a2.34,2.34,0,0,0,0-.35c0-.3.05-.44.37-.52a1,1,0,0,0,.82-1A1,1,0,0,0,27,19.93c-.31-.13-.67-.21-1-.34s-.44-.24-.39-.54a.44.44,0,0,1,.52-.35h0C26.59,18.76,27,18.88,27.45,19Z" transform="translate(-0.89 -0.9)"/>
    <path class="cls-2" d="M26.24,33a2.12,2.12,0,1,1-2.12,2.13A2.12,2.12,0,0,1,26.24,33Z" transform="translate(-0.89 -0.9)"/>
    <path class="cls-2" d="M34,30.14a2.11,2.11,0,1,1,2.1,2.13A2.11,2.11,0,0,1,34,30.14Z" transform="translate(-0.89 -0.9)"/>
    <path class="cls-2" d="M18.48,30.2A2.11,2.11,0,1,1,16.41,28a2.11,2.11,0,0,1,2.08,2.16Z" transform="translate(-0.89 -0.9)"/>
    <path d="M27.45,19c-.46-.09-.86-.21-1.27-.26a.44.44,0,0,0-.55.3h0v0c-.05.29.16.44.39.54s.67.21,1,.34A1,1,0,0,1,27.74,21a1,1,0,0,1-.84,1c-.31.08-.42.21-.37.52a2.34,2.34,0,0,1,0,.35H26v-.67l-1.45-.67.28-.55a11,11,0,0,0,1.2.46.72.72,0,0,0,.92-.35c.07-.29-.14-.52-.67-.67a8.23,8.23,0,0,1-.81-.27,1,1,0,0,1-.67-1,1,1,0,0,1,.81-.92c.13,0,.26-.07.42-.11v-.67h.48v.67a5.73,5.73,0,0,1,.62.17l.55.24Z" transform="translate(-0.89 -0.9)"/>
  </g>
</svg>
