<svg width="213" height="31" viewBox="0 0 213 31" fill="none" xmlns="http://www.w3.org/2000/svg">
<path d="M170.388 0.430664L170.388 30.2307" stroke="#8993A4" stroke-miterlimit="10"/>
<g clip-path="url(#clip0_92_1479)">
<path d="M67.6198 4.95153C64.9402 4.95153 63.7038 6.89581 63.7038 8.7728C63.7038 10.6498 64.8725 12.5268 67.6198 12.5268C68.6176 12.5268 69.683 12.1266 70.4384 11.4218L71.6036 12.5268C70.5061 13.5644 69.095 14.0709 67.6163 14.0709C63.7679 14.0709 62.0468 11.2129 62.0468 8.49656C62.0468 5.78023 63.8321 3.3791 67.6163 3.3791C69.0238 3.3791 70.3992 3.88199 71.5003 4.95507L70.3671 6.02814C69.6082 5.28797 68.614 4.95507 67.6163 4.95507L67.6198 4.95153ZM72.5693 13.8336V3.51014H74.2868V12.2895H79.8562V13.8336H72.5728H72.5693ZM86.3521 14.0709C82.6712 14.0709 80.918 11.4537 80.918 8.74092C80.918 5.59254 83.1879 3.34723 86.3521 3.34723C89.9938 3.34723 91.779 5.92898 91.779 8.74092C91.779 11.5529 90.0223 14.0709 86.3521 14.0709ZM86.3806 4.85236C83.9433 4.85236 82.6035 6.52749 82.6035 8.7728C82.6356 10.5825 83.7366 12.5587 86.3521 12.5587C88.9675 12.5587 90.0935 10.749 90.0935 8.7728C90.0935 6.79664 88.9604 4.88424 86.3806 4.85236ZM97.2736 14.0355C94.904 13.9682 92.9121 12.4949 92.9121 9.57672V3.54201H94.6011V9.57672C94.6011 11.4537 95.7307 12.4595 97.2736 12.5268C98.9626 12.6259 100.199 11.5529 100.199 9.57672V3.54201H101.881V9.57672C101.881 12.6259 99.8177 14.1382 97.2736 14.0355ZM107.486 13.8371H103.463V3.51014H107.486C111.096 3.51014 112.745 6.0246 112.774 8.57093C112.845 11.1846 111.16 13.8336 107.486 13.8336V13.8371ZM107.486 5.08964H105.148V12.2612H107.486C110.059 12.2612 111.163 10.4161 111.128 8.57447C111.099 6.83206 109.995 5.08964 107.486 5.08964ZM125.153 13.8726H123.638L122.231 10.2177L121.098 6.76477L119.929 10.2531L118.557 13.8726H117.082L113.226 3.54909H115.119L117.802 11.4927L120.549 3.54909H121.646L124.433 11.4927L127.077 3.54909H128.969L125.153 13.8726ZM138.141 13.8726L137.111 11.6945H131.371L130.373 13.8726H128.588L133.327 3.54909H135.183L139.926 13.8726H138.137H138.141ZM134.253 5.25963L132.026 10.1859H136.491L134.253 5.25963ZM144.601 9.61567V13.8371H142.916V9.61567L138.829 3.58451V3.51722H140.853L143.739 8.07512L146.761 3.51722H148.795V3.58451L144.601 9.61567ZM153.88 4.68945C152.465 4.68945 151.439 5.25964 151.439 6.26542C151.439 7.2712 152.608 7.54036 154.012 7.73868C156.178 8.04325 158.277 8.60989 158.277 10.9225C158.277 13.2351 156.111 14.1063 153.876 14.1063C151.849 14.1063 150.302 13.5042 149.34 11.7618L150.613 10.9225C151.364 12.162 152.672 12.6295 153.909 12.6295C155.145 12.6295 156.595 12.2293 156.595 10.9225C156.595 9.81754 155.355 9.41381 153.88 9.21548C151.785 8.94633 149.793 8.41157 149.793 6.19813C149.793 3.9847 151.952 3.24807 153.88 3.24807C155.391 3.24807 156.937 3.61638 157.832 4.99048L156.495 5.82982C155.975 5.12506 154.981 4.68945 153.88 4.68945ZM38.7215 24.111C31.9584 24.111 26.478 18.7669 26.478 12.1726C26.478 5.57837 31.962 0.230713 38.7215 0.230713C45.4811 0.230713 50.9686 5.57837 50.9686 12.1726C50.9686 18.7669 45.4847 24.111 38.7215 24.111ZM47.7117 30.1953C41.8252 30.1953 37.0575 25.5453 37.0575 19.8046C37.0575 14.0638 41.8287 9.41381 47.7117 9.41381C53.5947 9.41381 58.366 14.0638 58.366 19.8046C58.366 25.5453 53.5947 30.1953 47.7117 30.1953ZM29.8881 30.1953C24.0051 30.1953 19.2339 25.5453 19.2339 19.8046C19.2339 14.0638 24.0051 9.41381 29.8881 9.41381C35.7711 9.41381 40.5459 14.0638 40.5459 19.8046C40.5459 25.5453 35.7747 30.1953 29.8881 30.1953ZM29.8881 30.2307V21.9578H47.6761V30.2307H29.8881ZM12.4921 23.8844H2.14432C1.68109 23.8844 1.33189 23.5444 1.33189 23.0911V21.9188C1.33189 21.4655 1.67753 21.1255 2.14432 21.1255H12.4529C12.9162 21.1255 13.2689 21.4655 13.2689 21.9188V23.0911C13.3081 23.509 12.9197 23.8844 12.4921 23.8844ZM28.11 23.8844H17.8014C17.3382 23.8844 16.989 23.5444 16.989 23.0911V21.9188C16.989 21.4655 17.3382 21.1255 17.8014 21.1255H28.11C28.5733 21.1255 28.9225 21.4655 28.9225 21.9188V23.0911C28.9225 23.509 28.5733 23.8844 28.1065 23.8844H28.11ZM39.1527 30.2307H10.5573C9.78046 30.2307 9.12481 29.5932 9.12481 28.8318C9.12481 28.0704 9.78046 27.4329 10.5573 27.4329H39.1491C39.9224 27.4329 40.5816 28.0775 40.5816 28.8318C40.5816 29.5862 39.9224 30.2307 39.1491 30.2307H39.1527ZM30.3193 17.538H1.72029C0.943488 17.538 0.287842 16.897 0.287842 16.1426C0.287842 15.3883 0.943488 14.7438 1.72029 14.7438H30.3157C31.0925 14.7438 31.7482 15.3848 31.7482 16.1426C31.7482 16.9005 31.0925 17.538 30.3157 17.538H30.3193ZM37.9946 11.1916H9.39206C8.61882 11.1916 7.95961 10.5471 7.95961 9.79275C7.95961 9.03841 8.61882 8.39386 9.39206 8.39386H37.9875C38.7607 8.39386 39.4199 9.03841 39.4199 9.79275C39.4199 10.5471 38.7964 11.1916 37.9875 11.1916H37.9946ZM40.7419 4.84174H12.1429C11.3661 4.84174 10.7105 4.20073 10.7105 3.44285C10.7105 2.68497 11.3661 2.04396 12.1429 2.04396H40.7383C41.5151 2.04396 42.1708 2.68851 42.1708 3.44285C42.1708 4.19719 41.5151 4.84174 40.7383 4.84174H40.7419Z" fill="#2E39BF"/>
<path d="M103.762 18.6926C102.996 18.1649 102.048 17.8958 100.933 17.8958H98.5243V25.5135H100.933C102.045 25.5135 102.996 25.2231 103.762 24.6777C104.183 24.3873 104.511 23.9694 104.728 23.463C104.945 22.9565 105.074 22.3368 105.074 21.6674C105.074 20.9981 104.963 20.396 104.728 19.8896C104.511 19.3832 104.179 18.983 103.762 18.6926ZM99.9318 19.199H100.698C101.539 19.199 102.23 19.3619 102.761 19.6877C103.345 20.0313 103.638 20.7042 103.638 21.6639C103.638 22.6236 103.345 23.3497 102.761 23.7321C102.251 24.058 101.574 24.2386 100.719 24.2386H99.9531V19.1955H99.9353L99.9318 19.199Z" fill="#2E39BF"/>
<path d="M107.194 20.1587H105.843V25.5276H107.194V20.1587Z" fill="#2E39BF"/>
<path d="M111.901 20.6157C111.498 20.2545 111.042 20.0349 110.533 20.0349C109.784 20.0349 109.164 20.2899 108.69 20.7963C108.199 21.3028 107.96 21.9402 107.96 22.7194C107.96 23.4985 108.199 24.1147 108.673 24.6424C109.146 25.1488 109.784 25.4038 110.533 25.4038C111.06 25.4038 111.498 25.2586 111.865 24.9682V25.0957C111.865 25.549 111.737 25.8925 111.502 26.1298C111.267 26.3671 110.935 26.4911 110.536 26.4911C109.916 26.4911 109.513 26.2538 109.04 25.6021L108.11 26.4911L108.127 26.5265C108.327 26.7992 108.637 27.0719 109.04 27.3446C109.442 27.5995 109.952 27.7235 110.554 27.7235C111.356 27.7235 112.015 27.4685 112.489 26.9975C112.963 26.5088 113.219 25.8536 113.219 25.0568V20.1589H111.887V20.6122H111.904L111.901 20.6157ZM111.537 23.7712C111.299 24.0439 110.989 24.1714 110.607 24.1714C110.226 24.1714 109.913 24.0439 109.677 23.7712C109.439 23.4985 109.332 23.155 109.332 22.7194C109.332 22.2838 109.442 21.9225 109.677 21.6498C109.916 21.3771 110.226 21.2496 110.607 21.2496C110.989 21.2496 111.299 21.3771 111.537 21.6498C111.776 21.9225 111.901 22.2661 111.901 22.7194C111.901 23.1727 111.773 23.4985 111.537 23.7712Z" fill="#2E39BF"/>
<path d="M115.51 20.1587H114.16V25.5276H115.51V20.1587Z" fill="#2E39BF"/>
<path d="M118.411 18.7104H117.078V20.1625H116.312V21.3949H117.096V23.626C117.096 24.3166 117.242 24.8231 117.517 25.1135C117.791 25.4039 118.283 25.5491 118.978 25.5491C119.198 25.5491 119.416 25.5491 119.633 25.5314H119.687V24.2989L119.213 24.3166C118.885 24.3166 118.664 24.2635 118.575 24.1537C118.464 24.0439 118.411 23.8102 118.411 23.4454V21.3949H119.669V20.1625H118.411V18.7104Z" fill="#2E39BF"/>
<path d="M127.059 17.9099H125.709V25.5277H127.059V17.9099Z" fill="#2E39BF"/>
<path d="M140.375 23.6081C140.136 23.8808 139.883 24.1146 139.702 24.2421C139.52 24.3696 139.281 24.4227 138.989 24.4227C138.586 24.4227 138.259 24.2775 138.006 23.9871C137.749 23.6967 137.603 23.3142 137.603 22.8609C137.603 22.4076 137.731 22.0251 137.984 21.7347C138.241 21.4443 138.569 21.2991 138.968 21.2991C139.406 21.2991 139.862 21.5718 140.261 22.0251L141.156 21.1716C140.571 20.4102 139.823 20.0667 138.928 20.0667C138.18 20.0667 137.542 20.3393 137.011 20.8635C136.484 21.3912 136.227 22.0605 136.227 22.8573C136.227 23.6542 136.502 24.3271 137.011 24.8512C137.542 25.3789 138.18 25.648 138.928 25.648C139.912 25.648 140.699 25.2301 141.245 24.451L140.368 23.5975L140.375 23.6081Z" fill="#2E39BF"/>
<path d="M145.994 20.9025C145.795 20.6298 145.538 20.4137 145.211 20.2685C144.883 20.1056 144.516 20.0312 144.099 20.0312C143.333 20.0312 142.73 20.3039 142.257 20.867C141.8 21.4124 141.583 22.0818 141.583 22.8822C141.583 23.6825 141.84 24.3696 142.331 24.876C142.823 25.3824 143.482 25.6374 144.284 25.6374C145.196 25.6374 145.945 25.2762 146.511 24.5502L146.547 24.5148L145.652 23.6613C145.581 23.7534 145.453 23.8773 145.342 23.9694C145.214 24.0969 145.086 24.1854 144.94 24.2598C144.74 24.3696 144.501 24.405 144.245 24.405C143.864 24.405 143.554 24.2952 143.315 24.0792C143.098 23.8809 142.969 23.6082 142.934 23.2646H146.525L146.543 22.7759C146.543 22.4324 146.49 22.0853 146.397 21.7772C146.326 21.4691 146.18 21.1787 145.994 20.906V20.9025ZM143.019 22.1739C143.094 21.9189 143.201 21.7028 143.365 21.5399C143.546 21.3593 143.785 21.2672 144.077 21.2672C144.405 21.2672 144.662 21.3593 144.826 21.5399C144.99 21.7028 145.082 21.9224 145.1 22.1739H143.019Z" fill="#2E39BF"/>
<path d="M151.175 20.5589C150.755 20.2154 150.192 20.0312 149.479 20.0312C149.023 20.0312 148.603 20.1233 148.222 20.3217C147.876 20.5023 147.527 20.7927 147.309 21.1752L147.327 21.1929L148.204 22.0287C148.567 21.4656 148.952 21.2672 149.479 21.2672C149.772 21.2672 149.989 21.3381 150.174 21.4833C150.36 21.6285 150.449 21.8268 150.449 22.0641V22.3191C150.121 22.2093 149.775 22.1739 149.447 22.1739C148.774 22.1739 148.225 22.3368 147.805 22.6449C147.384 22.953 147.185 23.4063 147.185 23.9871C147.185 24.4935 147.366 24.8937 147.716 25.2018C148.061 25.4922 148.499 25.6374 149.03 25.6374C149.561 25.6374 150.035 25.4391 150.47 25.0743V25.5099H151.803V22.0641C151.803 21.4124 151.603 20.9025 151.183 20.5589H151.175ZM148.767 23.463C148.913 23.3532 149.13 23.3 149.405 23.3C149.732 23.3 150.078 23.3709 150.427 23.4984V24.0261C150.135 24.2988 149.732 24.444 149.258 24.444C149.02 24.444 148.838 24.3908 148.71 24.281C148.581 24.1713 148.528 24.0438 148.528 23.8809C148.546 23.7179 148.621 23.5727 148.767 23.463Z" fill="#2E39BF"/>
<path d="M156.848 20.6688C156.467 20.2509 155.936 20.0349 155.263 20.0349C154.735 20.0349 154.297 20.1801 153.969 20.4882V20.1624H152.636V25.5313H153.987V22.5565C153.987 22.1563 154.08 21.8305 154.279 21.5967C154.461 21.3594 154.735 21.2532 155.081 21.2532C155.391 21.2532 155.63 21.3453 155.794 21.5613C155.957 21.7596 156.05 22.05 156.05 22.4148V25.5171H157.401V22.4148C157.418 21.6711 157.219 21.0903 156.852 20.6724L156.848 20.6688Z" fill="#2E39BF"/>
<path d="M124.23 20.5589C123.809 20.2154 123.246 20.0312 122.534 20.0312C122.078 20.0312 121.657 20.1233 121.276 20.3217C120.93 20.5023 120.585 20.7927 120.364 21.1752L120.382 21.1929L121.258 22.0287C121.622 21.4656 122.006 21.2672 122.534 21.2672C122.826 21.2672 123.043 21.3381 123.225 21.4833C123.407 21.6285 123.499 21.8268 123.499 22.0641V22.3191C123.172 22.2093 122.826 22.1739 122.495 22.1739C121.821 22.1739 121.272 22.3368 120.852 22.6449C120.431 22.953 120.232 23.4063 120.232 23.9871C120.232 24.4935 120.414 24.8937 120.759 25.2018C121.105 25.4922 121.543 25.6374 122.074 25.6374C122.605 25.6374 123.079 25.4391 123.517 25.0743V25.5099H124.85V22.0641C124.85 21.4124 124.65 20.9025 124.23 20.5589ZM121.821 23.463C121.967 23.3532 122.185 23.3 122.459 23.3C122.787 23.3 123.132 23.3709 123.482 23.4984V24.0261C123.189 24.2988 122.79 24.444 122.313 24.444C122.074 24.444 121.892 24.3908 121.764 24.281C121.636 24.1713 121.582 24.0438 121.582 23.8809C121.6 23.7179 121.675 23.5727 121.821 23.463Z" fill="#2E39BF"/>
<path d="M131.748 25.6375C129.578 25.6375 127.807 23.8774 127.807 21.7206C127.807 19.5638 129.578 17.8037 131.748 17.8037C133.918 17.8037 135.689 19.5638 135.689 21.7206C135.689 23.8774 133.94 25.6375 131.748 25.6375ZM131.748 19.1601C130.344 19.1601 129.194 20.304 129.194 21.6994C129.194 23.0947 130.344 24.2386 131.748 24.2386C133.152 24.2386 134.303 23.0947 134.303 21.6994C134.303 20.304 133.174 19.1601 131.748 19.1601Z" fill="#2E39BF"/>
<path d="M90.3465 25.4887C89.9225 25.4887 89.584 25.3541 89.331 25.0885V25.4072H88.5114V20.311H89.3452V22.1066C89.6196 21.8728 89.951 21.756 90.3465 21.756C90.8596 21.756 91.2765 21.933 91.6043 22.2872C91.9322 22.6413 92.0961 23.0876 92.0961 23.6259C92.0961 24.1642 91.9322 24.6104 91.6043 24.9646C91.273 25.3152 90.8525 25.4887 90.3465 25.4887ZM89.584 24.4404C89.755 24.6529 89.9902 24.7592 90.2859 24.7592C90.5817 24.7592 90.8169 24.6529 90.9879 24.4404C91.1589 24.2279 91.2445 23.9552 91.2445 23.6259C91.2445 23.2965 91.1589 23.0238 90.9879 22.8113C90.8169 22.5988 90.5817 22.4926 90.2859 22.4926C89.9902 22.4926 89.755 22.5988 89.584 22.8113C89.4129 23.0238 89.3274 23.2965 89.3274 23.6259C89.3274 23.9552 89.4129 24.2279 89.584 24.4404ZM96.2081 22.1987L94.202 26.8168H93.3254L93.8813 25.4497L92.4631 21.8445H93.4145L94.3517 24.4192L95.3031 21.8445L96.2117 22.1987H96.2081Z" fill="#2E39BF"/>
<path d="M106.538 17.8215C106.299 17.8215 106.1 17.9136 105.954 18.0588C105.79 18.2217 105.715 18.4023 105.715 18.6396C105.715 18.8769 105.808 19.0752 105.954 19.2381C106.118 19.401 106.317 19.4754 106.556 19.4754C106.795 19.4754 106.994 19.3833 107.158 19.2381C107.322 19.0752 107.397 18.8769 107.397 18.6396C107.397 18.4023 107.304 18.204 107.158 18.0588C106.976 17.8959 106.777 17.8215 106.538 17.8215Z" fill="#2E39BF"/>
<path d="M114.855 17.8215C114.616 17.8215 114.417 17.9136 114.27 18.0588C114.107 18.2217 114.032 18.4023 114.032 18.6396C114.032 18.8769 114.124 19.0752 114.27 19.2381C114.434 19.401 114.634 19.4754 114.873 19.4754C115.111 19.4754 115.311 19.3833 115.475 19.2381C115.639 19.0752 115.714 18.8769 115.714 18.6396C115.714 18.4023 115.621 18.204 115.475 18.0588C115.275 17.8959 115.072 17.8215 114.855 17.8215Z" fill="#2E39BF"/>
</g>
<path d="M187.787 17.4857C187.787 18.0557 187.637 18.5457 187.337 18.9557C187.047 19.3657 186.652 19.6807 186.152 19.9007C185.652 20.1207 185.102 20.2307 184.502 20.2307H179.417V9.58071H184.907C185.407 9.58071 185.837 9.71571 186.197 9.98571C186.567 10.2457 186.847 10.5857 187.037 11.0057C187.237 11.4157 187.337 11.8457 187.337 12.2957C187.337 12.8157 187.202 13.3057 186.932 13.7657C186.672 14.2157 186.297 14.5507 185.807 14.7707C186.417 14.9507 186.897 15.2807 187.247 15.7607C187.607 16.2307 187.787 16.8057 187.787 17.4857ZM186.062 17.1707C186.062 16.8707 185.997 16.6007 185.867 16.3607C185.747 16.1107 185.577 15.9107 185.357 15.7607C185.147 15.6007 184.897 15.5207 184.607 15.5207L181.097 15.5207V18.7757H184.502C184.802 18.7757 185.067 18.7057 185.297 18.5657C185.537 18.4157 185.722 18.2207 185.852 17.9807C185.992 17.7307 186.062 17.4607 186.062 17.1707ZM181.097 11.0357V14.1707H184.187C184.467 14.1707 184.717 14.1057 184.937 13.9757C185.157 13.8357 185.332 13.6507 185.462 13.4207C185.592 13.1807 185.657 12.9107 185.657 12.6107C185.657 12.3007 185.597 12.0307 185.477 11.8007C185.357 11.5607 185.192 11.3757 184.982 11.2457C184.782 11.1057 184.547 11.0357 184.277 11.0357H181.097ZM189.344 9.28071H190.994V17.9657C190.994 18.3657 191.054 18.6207 191.174 18.7307C191.294 18.8407 191.444 18.8957 191.624 18.8957C191.824 18.8957 192.009 18.8757 192.179 18.8357C192.359 18.7957 192.514 18.7457 192.644 18.6857L192.884 19.9907C192.644 20.0907 192.359 20.1757 192.029 20.2457C191.699 20.3157 191.404 20.3507 191.144 20.3507C190.584 20.3507 190.144 20.1957 189.824 19.8857C189.504 19.5657 189.344 19.1257 189.344 18.5657V9.28071ZM197.366 20.3807C196.746 20.3807 196.191 20.2757 195.701 20.0657C195.211 19.8457 194.786 19.5457 194.426 19.1657C194.076 18.7857 193.806 18.3557 193.616 17.8757C193.426 17.3857 193.331 16.8657 193.331 16.3157C193.331 15.7657 193.426 15.2457 193.616 14.7557C193.806 14.2657 194.076 13.8357 194.426 13.4657C194.786 13.0857 195.211 12.7907 195.701 12.5807C196.201 12.3607 196.756 12.2507 197.366 12.2507C197.976 12.2507 198.526 12.3607 199.016 12.5807C199.516 12.7907 199.941 13.0857 200.291 13.4657C200.651 13.8357 200.926 14.2657 201.116 14.7557C201.306 15.2457 201.401 15.7657 201.401 16.3157C201.401 16.8657 201.306 17.3857 201.116 17.8757C200.926 18.3557 200.651 18.7857 200.291 19.1657C199.941 19.5457 199.516 19.8457 199.016 20.0657C198.526 20.2757 197.976 20.3807 197.366 20.3807ZM195.026 16.3307C195.026 16.8307 195.131 17.2807 195.341 17.6807C195.551 18.0807 195.831 18.3957 196.181 18.6257C196.531 18.8557 196.926 18.9707 197.366 18.9707C197.796 18.9707 198.186 18.8557 198.536 18.6257C198.896 18.3857 199.181 18.0657 199.391 17.6657C199.601 17.2557 199.706 16.8057 199.706 16.3157C199.706 15.8157 199.601 15.3657 199.391 14.9657C199.181 14.5657 198.896 14.2507 198.536 14.0207C198.186 13.7807 197.796 13.6607 197.366 13.6607C196.926 13.6607 196.531 13.7807 196.181 14.0207C195.831 14.2607 195.551 14.5807 195.341 14.9807C195.131 15.3707 195.026 15.8207 195.026 16.3307ZM205.969 20.3057C205.439 20.3057 204.954 20.2007 204.514 19.9907C204.074 19.7707 203.694 19.4757 203.374 19.1057C203.064 18.7357 202.819 18.3107 202.639 17.8307C202.469 17.3507 202.384 16.8457 202.384 16.3157C202.384 15.7557 202.474 15.2307 202.654 14.7407C202.834 14.2507 203.084 13.8207 203.404 13.4507C203.734 13.0707 204.119 12.7757 204.559 12.5657C204.999 12.3557 205.489 12.2507 206.029 12.2507C206.659 12.2507 207.209 12.4007 207.679 12.7007C208.159 13.0007 208.554 13.3907 208.864 13.8707V12.3857H210.319V20.0057C210.319 20.7657 210.134 21.4107 209.764 21.9407C209.404 22.4707 208.909 22.8757 208.279 23.1557C207.649 23.4357 206.939 23.5757 206.149 23.5757C205.279 23.5757 204.559 23.4257 203.989 23.1257C203.419 22.8257 202.934 22.4157 202.534 21.8957L203.464 21.0257C203.764 21.4457 204.149 21.7657 204.619 21.9857C205.099 22.2057 205.609 22.3157 206.149 22.3157C206.599 22.3157 207.014 22.2307 207.394 22.0607C207.784 21.9007 208.094 21.6457 208.324 21.2957C208.554 20.9557 208.669 20.5257 208.669 20.0057V18.8057C208.389 19.2757 208.004 19.6457 207.514 19.9157C207.024 20.1757 206.509 20.3057 205.969 20.3057ZM206.509 18.9707C206.759 18.9707 206.999 18.9307 207.229 18.8507C207.459 18.7607 207.669 18.6457 207.859 18.5057C208.059 18.3557 208.229 18.1907 208.369 18.0107C208.509 17.8207 208.609 17.6207 208.669 17.4107V15.3557C208.539 15.0157 208.354 14.7207 208.114 14.4707C207.874 14.2107 207.604 14.0107 207.304 13.8707C207.004 13.7307 206.699 13.6607 206.389 13.6607C206.029 13.6607 205.704 13.7407 205.414 13.9007C205.134 14.0507 204.894 14.2557 204.694 14.5157C204.494 14.7657 204.339 15.0507 204.229 15.3707C204.119 15.6907 204.064 16.0207 204.064 16.3607C204.064 16.7207 204.124 17.0557 204.244 17.3657C204.374 17.6757 204.549 17.9557 204.769 18.2057C204.989 18.4457 205.249 18.6357 205.549 18.7757C205.849 18.9057 206.169 18.9707 206.509 18.9707Z" fill="#8993A4"/>
<defs>
<clipPath id="clip0_92_1479">
<rect width="158" height="30" fill="white" transform="translate(0.287842 0.230713)"/>
</clipPath>
</defs>
</svg>
