<svg id="Layer_1" data-name="Layer 1" xmlns="http://www.w3.org/2000/svg" width="50.09" height="50.09" viewBox="0 0 50.09 50.09">
  <defs>
    <style>
      .cls-1 {
        fill: #b764d8;
      }

      .cls-2 {
        fill: #fff;
        stroke-width: 1.5px;
      }

      .cls-2, .cls-3 {
        stroke: #000;
        stroke-miterlimit: 10;
      }

      .cls-3 {
        fill: none;
      }

      .cls-4 {
        fill: #cd74f7;
      }
    </style>
  </defs>
  <title>hdr-startup</title>
  <circle class="cls-1" cx="25.04" cy="25.04" r="25.04"/>
  <path class="cls-2" d="M36,37.93c-.43-.69-.83-1.4-1.3-2.06a14,14,0,0,0-1.25-1.39,10,10,0,0,0-1.18-1.15,8,8,0,0,0-1.49-.84.57.57,0,0,0-.5.22c-.33.56-.61,1.15-.91,1.73a.87.87,0,0,1-1.12.53,7.51,7.51,0,0,0-3.58,0,.54.54,0,0,1-.46-.19c-.36-.58-.7-1.18-1-1.8s-.48-.78-1.08-.39a12.43,12.43,0,0,0-2.21,1.69,22.76,22.76,0,0,0-2,2.45,7.08,7.08,0,0,0-.43.87,1.21,1.21,0,0,1-.26.25c-.08-.11-.24-.21-.24-.32A9.49,9.49,0,0,1,17,36,18.34,18.34,0,0,1,18.66,30,10.17,10.17,0,0,1,21,26.77c.1-.09.11-.35.09-.52-.09-1.14-.27-2.28-.29-3.43a21.78,21.78,0,0,1,.77-5.61,26.69,26.69,0,0,1,2.59-6.43,30.29,30.29,0,0,1,2.2-3.13c.29-.39.58-.24.84.08a22.72,22.72,0,0,1,3.24,5.46,25.4,25.4,0,0,1,2.06,7.74,18.35,18.35,0,0,1-.2,5.2,1.23,1.23,0,0,0,.31,1,11.34,11.34,0,0,1,3,5.76c.34,1.44.46,2.94.65,4.42a2.53,2.53,0,0,1-.1.68ZM28.59,21a2.67,2.67,0,0,0,.1-3.8A2.7,2.7,0,0,0,24.79,21,2.63,2.63,0,0,0,28.59,21Z" transform="translate(-1.57 -1.43)"/>
  <path class="cls-3" d="M28.62,37.55A6.38,6.38,0,0,1,29,38.87a8.38,8.38,0,0,1-1.84,5.38c-.38.52-.51.47-.93-.06A7.89,7.89,0,0,1,24.54,40a7,7,0,0,1,.12-1.71A2.73,2.73,0,0,1,25,37.5c.4.81.74,1.57,1.16,2.3.33.57.73.56,1.09,0s.62-1.18.92-1.78c.07-.13.11-.27.17-.41Z" transform="translate(-1.57 -1.43)"/>
  <circle class="cls-4" cx="25.18" cy="17.69" r="2.45"/>
</svg>
