<svg id="Layer_1" data-name="Layer 1" xmlns="http://www.w3.org/2000/svg" width="51.56" height="51.56" viewBox="0 0 51.56 51.56">
  <defs>
    <style>
      .cls-1 {
        fill: #fbb055;
      }

      .cls-2 {
        fill: #fff;
      }
    </style>
  </defs>
  <title>about-us</title>
  <circle class="cls-1" cx="25.78" cy="25.78" r="25.78"/>
  <path d="M37.1,26.28c.56.77,1.1,1.46,1.63,2.21a7.33,7.33,0,0,1,1.18,2.78A4,4,0,0,1,37,36.08a10.6,10.6,0,0,1-4.92.05l-.54-.09c-.3.72-.57,1.42-.89,2.1A8.25,8.25,0,0,1,28.56,41a3.91,3.91,0,0,1-5.24.1,9.62,9.62,0,0,1-2.67-4c-.13-.34-.25-.69-.43-1.13-.1.21-.15.33-.2.45a3.26,3.26,0,0,1-6.24-.46.73.73,0,0,0-.25-.42A4.1,4.1,0,0,1,12,30.62a11.92,11.92,0,0,1,2.5-4.06l.16-.2c-.41-.54-.84-1-1.22-1.6a8.25,8.25,0,0,1-1.64-3.6,4.06,4.06,0,0,1,3.44-4.67,12.19,12.19,0,0,1,5,.18l.21-.54a11.19,11.19,0,0,1,2.21-3.93,4,4,0,0,1,4.48-1.31.69.69,0,0,0,.44-.05,3.27,3.27,0,0,1,4,1,3.2,3.2,0,0,1-.15,4.12.54.54,0,0,0,0,.69c1.15-.1,2.28-.23,3.4-.26a6.93,6.93,0,0,1,1.88.25,4.06,4.06,0,0,1,3,5.5,11.19,11.19,0,0,1-2.19,3.73Zm-5.7.05c0-.87-.06-1.78-.14-2.67a.93.93,0,0,0-.37-.64q-2.29-1.37-4.63-2.67a.89.89,0,0,0-.74,0q-2.36,1.31-4.66,2.7a.83.83,0,0,0-.34.6V29a.69.69,0,0,0,.38.69l4.63,2.65a.69.69,0,0,0,.75,0l4.59-2.67a.78.78,0,0,0,.41-.73C31.3,28.08,31.35,27.23,31.4,26.34Zm4.67,1.07c-.84.69-1.6,1.44-2.43,2a2.45,2.45,0,0,0-1.18,2c-.08,1.07-.34,2.06-.54,3.27,1.15.06,2.29.18,3.44.16a4.81,4.81,0,0,0,1.74-.43,2.32,2.32,0,0,0,1.42-2.55,9.06,9.06,0,0,0-2.45-4.45Zm-4.12-9.34c.22,1.37.44,2.61.63,3.88a1.07,1.07,0,0,0,.49.8c.48.34.93.69,1.37,1.07s1.07.93,1.6,1.37a10,10,0,0,0,2.36-4A2.52,2.52,0,0,0,36.83,18h0l-.16,0A9.45,9.45,0,0,0,31.94,18.06Zm-16.22,7.2c.41-.36.75-.69,1.11-1A8.25,8.25,0,0,1,18,23.35,2.67,2.67,0,0,0,19.35,21a23.5,23.5,0,0,1,.54-2.95c-.44-.08-.85-.16-1.27-.21a7.36,7.36,0,0,0-3.73.28A2.44,2.44,0,0,0,13.32,21,9.06,9.06,0,0,0,15.72,25.26Zm6,10.46a16.11,16.11,0,0,0,.85,2,11.23,11.23,0,0,0,1.57,2.13,2.3,2.3,0,0,0,3.06.33c1.6-1.07,2.19-2.75,2.8-4.43-1.37-.54-2.67-1-3.94-1.51a.54.54,0,0,0-.36,0Zm0-18.75c1.33.54,2.62,1,3.91,1.49a.89.89,0,0,0,.54-.12l3.44-1.25L30,17a3.44,3.44,0,0,1-3.81-4.89h-.47a3,3,0,0,0-2,1.18A10.57,10.57,0,0,0,21.77,17ZM14,33.94a3.36,3.36,0,0,1,5.56-.85c-.13-.92-.25-1.84-.38-2.75a.41.41,0,0,0-.15-.23L15.7,27.45a9.82,9.82,0,0,0-2.35,4A2.56,2.56,0,0,0,14,33.94ZM30.83,13.69a1.79,1.79,0,1,0-1.77,1.81,1.77,1.77,0,0,0,1.77-1.77ZM17,37a1.79,1.79,0,1,0-1.77-1.81h0A1.77,1.77,0,0,0,17,37h0Zm2-12.64-2.21,2,2.21,1.92ZM35,26.32l-2.17-1.91v3.84Zm-7.37-7L31,21.28l-.59-2.88Zm-6.36-.95-.59,2.88,3.34-1.93Zm-.59,13,.58,2.88,2.75-.95ZM31,31.4l-3.35,1.93,2.75.94Z" transform="translate(-0.1 -0.47)"/>
  <path class="cls-2" d="M30.83,13.69A1.79,1.79,0,1,1,29,11.93h0a1.77,1.77,0,0,1,1.8,1.73A.24.24,0,0,1,30.83,13.69Z" transform="translate(-0.1 -0.47)"/>
  <path class="cls-2" d="M17,37a1.79,1.79,0,1,1,1.79-1.78h0A1.76,1.76,0,0,1,17,37Z" transform="translate(-0.1 -0.47)"/>
  <path d="M25.89,24.1a2.24,2.24,0,0,1,2.25,2.23h0a2.24,2.24,0,1,1-4.49,0,2.21,2.21,0,0,1,2.19-2.24h.06Zm.76,2.24a.77.77,0,0,0-.74-.78.8.8,0,0,0-.8.77.78.78,0,0,0,.78.77h0a.75.75,0,0,0,.75-.75h0Z" transform="translate(-0.1 -0.47)"/>
  <path class="cls-2" d="M26.65,26.33a.75.75,0,0,1-.74.76h0a.78.78,0,0,1-.79-.76h0a.8.8,0,0,1,.8-.77A.77.77,0,0,1,26.65,26.33Z" transform="translate(-0.1 -0.47)"/>
</svg>
