<svg id="Layer_1" data-name="Layer 1" xmlns="http://www.w3.org/2000/svg" width="49.99" height="49.99" viewBox="0 0 49.99 49.99">
  <defs>
    <style>
      .cls-1 {
        fill: #39dcb1;
      }

      .cls-2 {
        fill: #fff;
      }
    </style>
  </defs>
  <title>tools</title>
  <g>
    <circle class="cls-1" cx="24.99" cy="24.99" r="24.99"/>
    <path class="cls-2" d="M21.54,14.85a5.65,5.65,0,0,1,4.52,7.39.81.81,0,0,0,.21.93L37.16,34A2.2,2.2,0,0,1,34,37.15h0L23.18,26.28a.82.82,0,0,0-.94-.22,5.63,5.63,0,0,1-7.33-4.55l.21.2c.47.47.93.94,1.41,1.39a1.19,1.19,0,0,0,.49.28c1.22.33,2.45.67,3.67,1a.71.71,0,0,0,.75-.21l2.75-2.75a.71.71,0,0,0,.2-.75c-.33-1.22-.67-2.45-1-3.67a1.12,1.12,0,0,0-.27-.47c-.47-.48-.94-.95-1.42-1.41a1.07,1.07,0,0,0-.24-.13ZM35.42,33.71a1.7,1.7,0,0,0,0,3.39h0a1.7,1.7,0,0,0,.21-3.39Z" transform="translate(-1 -1)"/>
    <path d="M35.24,39.14,34.71,39a3.46,3.46,0,0,1-1.55-.91L22.58,27.53a.39.39,0,0,0-.43-.12,6.94,6.94,0,0,1-8.57-5.75,1.91,1.91,0,0,0-.06-.34V20.07a.31.31,0,0,0,0-.09.67.67,0,0,1,.45-.67.73.73,0,0,1,.79.28L17.23,22a.79.79,0,0,0,.33.2c1,.26,1.95.53,2.92.77a.33.33,0,0,0,.37-.1q1-1,2-2a.37.37,0,0,0,.11-.41c-.25-1-.49-1.9-.75-2.85a.94.94,0,0,0-.23-.39L19.5,14.73a.66.66,0,0,1,.4-1.16l.24,0h1.13c.49.1,1,.17,1.46.31a6.9,6.9,0,0,1,4.87,7.43,7.17,7.17,0,0,1-.17,1,.35.35,0,0,0,.11.39l9.88,9.86c.19.19.37.39.57.57a3.47,3.47,0,0,1,1.13,2.11.08.08,0,0,0,0,.07V36a1.27,1.27,0,0,1,0,.19A3.5,3.5,0,0,1,36.51,39l-.53.12ZM21.54,14.85l-.09.09a1.07,1.07,0,0,1,.24.13c.48.47,1,.93,1.42,1.41a1.12,1.12,0,0,1,.28.5c.33,1.22.67,2.45,1,3.67a.71.71,0,0,1-.2.75l-2.75,2.75a.71.71,0,0,1-.75.21c-1.24-.33-2.46-.67-3.68-1a1.19,1.19,0,0,1-.49-.28c-.47-.45-.93-.93-1.41-1.39l-.21-.2a5.63,5.63,0,0,0,7.33,4.54.82.82,0,0,1,.94.23L34,37.14A2.2,2.2,0,1,0,37.13,34L26.27,23.16a.81.81,0,0,1-.21-.93,5.65,5.65,0,0,0-4.51-7.39Z" transform="translate(-1 -1)"/>
    <path d="M39.14,18.33a3.63,3.63,0,0,1-.46.47c-.67.53-1.41,1-2.13,1.49a15,15,0,0,0-2.67,2.26c-.57.61-1.17,1.17-1.75,1.75a.67.67,0,0,1-.91.11l-.06-.05a.67.67,0,0,1,0-.91l.07-.06,3-3a2.21,2.21,0,0,1,.29-.23l2.75-1.92.26-.19-1.27-1.2-.13.17c-.4.57-.82,1.13-1.2,1.73a14.26,14.26,0,0,1-2.21,2.6c-.61.58-1.19,1.19-1.79,1.79a.67.67,0,0,1-.77.14.61.61,0,0,1-.3-.67,1,1,0,0,1,.25-.41l2.79-2.8a2.81,2.81,0,0,0,.31-.36l2.43-3.47a.67.67,0,0,1,1.16-.11l2,2a5.27,5.27,0,0,1,.36.44Z" transform="translate(-1 -1)"/>
    <path d="M18.59,39.14c-.25-.06-.51-.1-.75-.18a3.89,3.89,0,0,1-1.51-6.41c1.1-1.15,2.24-2.27,3.33-3.41a.67.67,0,1,1,.9.93L17.23,33.4A2.67,2.67,0,0,0,17,36.94a2.61,2.61,0,0,0,3.63.35,4,4,0,0,0,.39-.35l4-4a.65.65,0,0,1,1.12.62l0,.1,0,.06c-1.46,1.46-2.91,2.92-4.38,4.36a3.74,3.74,0,0,1-2.13,1l-.17,0Z" transform="translate(-1 -1)"/>
    <path d="M18.76,34.39a.67.67,0,0,1-.67-.32.61.61,0,0,1,0-.67,1,1,0,0,1,.15-.17l3.6-3.57a.67.67,0,0,1,.73-.2A.53.53,0,0,1,23,30a.85.85,0,0,1-.17.53q-1.83,1.87-3.69,3.7A1.2,1.2,0,0,1,18.76,34.39Z" transform="translate(-1 -1)"/>
    <path d="M20.6,36.2a.67.67,0,0,1-.67-.33.61.61,0,0,1,0-.67,1.38,1.38,0,0,1,.17-.19l3.51-3.5a1.07,1.07,0,0,1,.36-.25.67.67,0,0,1,.67,1.07c-.34.35-.67.67-1.07,1.07-.87.87-1.73,1.73-2.61,2.59A2,2,0,0,1,20.6,36.2Z" transform="translate(-1 -1)"/>
    <path d="M35.45,33.73a1.7,1.7,0,1,1-1.71,1.69h0A1.7,1.7,0,0,1,35.45,33.73Zm0,2.1a.41.41,0,0,0,.39-.41.4.4,0,0,0-.41-.39h0a.39.39,0,0,0-.38.39h0a.4.4,0,0,0,.39.39Z" transform="translate(-1 -1)"/>
    <path class="cls-2" d="M35.44,35.83a.4.4,0,0,1-.41-.39.39.39,0,0,1,.36-.41h0a.4.4,0,0,1,.42.38h0A.41.41,0,0,1,35.44,35.83Z" transform="translate(-1 -1)"/>
  </g>
</svg>
